<svg width="24" height="24" viewBox="0 0 24 24" fill="none" xmlns="http://www.w3.org/2000/svg">
<path d="M18.82 1.02998H5.15004C4.60946 1.02867 4.07394 1.13402 3.57414 1.33998C3.07434 1.54594 2.62007 1.84846 2.23736 2.23024C1.85465 2.61202 1.55101 3.06559 1.34384 3.56489C1.13667 4.06419 1.03004 4.59945 1.03004 5.14003V18.86C1.02872 19.4014 1.13439 19.9378 1.34097 20.4382C1.54755 20.9387 1.85097 21.3934 2.23381 21.7763C2.61665 22.1591 3.07136 22.4625 3.57182 22.6691C4.07228 22.8757 4.60862 22.9813 5.15004 22.98H18.82C19.3615 22.9813 19.8978 22.8757 20.3983 22.6691C20.8987 22.4625 21.3534 22.1591 21.7363 21.7763C22.1191 21.3934 22.4225 20.9387 22.6291 20.4382C22.8357 19.9378 22.9413 19.4014 22.94 18.86V5.14003C22.94 4.59945 22.8334 4.06419 22.6262 3.56489C22.419 3.06559 22.1154 2.61202 21.7327 2.23024C21.35 1.84846 20.8957 1.54594 20.3959 1.33998C19.8961 1.13402 19.3606 1.02867 18.82 1.02998ZM7.97003 18.03H6.47003V10.03H7.97003V18.03ZM7.22003 8.45002C6.9728 8.45002 6.73113 8.37668 6.52557 8.23933C6.32001 8.10198 6.15979 7.90676 6.06518 7.67836C5.97057 7.44995 5.94581 7.1986 5.99405 6.95613C6.04228 6.71365 6.16133 6.49093 6.33615 6.31611C6.51096 6.1413 6.7337 6.02224 6.97618 5.97401C7.21865 5.92578 7.46998 5.95057 7.69839 6.04518C7.9268 6.13979 8.12201 6.3 8.25937 6.50557C8.39672 6.71113 8.47003 6.9528 8.47003 7.20002C8.46086 7.52282 8.33188 7.83064 8.10821 8.06355C7.88454 8.29646 7.58219 8.43781 7.26004 8.46003L7.22003 8.45002ZM17.97 18.03H16.47V13.95C16.47 13.3533 16.233 12.781 15.811 12.359C15.3891 11.9371 14.8168 11.7 14.22 11.7C13.6233 11.7 13.051 11.9371 12.6291 12.359C12.2071 12.781 11.97 13.3533 11.97 13.95V17.95H10.47V13.95V9.95002H11.97V11.02C12.6062 10.5092 13.3942 10.2242 14.21 10.21C15.1967 10.2327 16.137 10.6334 16.8367 11.3294C17.5364 12.0253 17.9421 12.9635 17.97 13.95V18.03Z" fill="#000F16"/>
</svg>
