<svg width="22" height="22" viewBox="0 0 22 22" fill="none" xmlns="http://www.w3.org/2000/svg">
<path d="M17.86 0.0299804H4.15004C3.60946 0.0286652 3.07394 0.13402 2.57414 0.339978C2.07434 0.545936 1.62006 0.848457 1.23735 1.23024C0.854639 1.61202 0.551026 2.06559 0.343854 2.56489C0.136682 3.06419 0.0300399 3.59945 0.0300415 4.14003V17.86C0.0287226 18.4014 0.134372 18.9378 0.340955 19.4382C0.547537 19.9387 0.850967 20.3934 1.23381 20.7763C1.61665 21.1591 2.07136 21.4625 2.57182 21.6691C3.07228 21.8757 3.60862 21.9813 4.15004 21.98H17.86C18.4014 21.9813 18.9378 21.8757 19.4382 21.6691C19.9387 21.4625 20.3934 21.1591 20.7763 20.7763C21.1591 20.3934 21.4625 19.9387 21.6691 19.4382C21.8757 18.9378 21.9813 18.4014 21.98 17.86V4.14003C21.98 3.59945 21.8734 3.06419 21.6662 2.56489C21.459 2.06559 21.1554 1.61202 20.7727 1.23024C20.39 0.848457 19.9357 0.545936 19.4359 0.339978C18.9361 0.13402 18.4006 0.0286652 17.86 0.0299804ZM11.05 15.92C10.0611 15.92 9.09441 15.6268 8.27217 15.0773C7.44992 14.5279 6.80908 13.7471 6.43065 12.8334C6.05221 11.9198 5.95317 10.9144 6.1461 9.94453C6.33903 8.97463 6.81525 8.08374 7.51451 7.38447C8.21377 6.68521 9.10466 6.20899 10.0746 6.01606C11.0445 5.82314 12.0498 5.92217 12.9635 6.30061C13.8771 6.67905 14.658 7.31992 15.2074 8.14216C15.7568 8.96441 16.05 9.93109 16.05 10.92C16.05 12.2461 15.5232 13.5178 14.5856 14.4555C13.6479 15.3932 12.3761 15.92 11.05 15.92ZM17.8 5.34999C17.8 5.56755 17.7355 5.78024 17.6146 5.96113C17.4938 6.14203 17.322 6.28303 17.121 6.36628C16.92 6.44954 16.6988 6.47129 16.4854 6.42885C16.272 6.3864 16.0761 6.28166 15.9222 6.12782C15.7684 5.97398 15.6636 5.77797 15.6212 5.56459C15.5787 5.35121 15.6005 5.13003 15.6838 4.92903C15.767 4.72803 15.908 4.55625 16.0889 4.43538C16.2698 4.31451 16.4825 4.25001 16.7 4.25001C16.9848 4.26037 17.2544 4.38083 17.4521 4.58601C17.6498 4.79119 17.7602 5.06505 17.76 5.34999H17.8Z" fill="#000F16"/>
</svg>
