<svg width="22" height="22" viewBox="0 0 22 22" fill="none" xmlns="http://www.w3.org/2000/svg">
<path d="M18.72 0.539978H3.29004C2.56069 0.539978 1.86122 0.829734 1.3455 1.34546C0.829772 1.86118 0.540039 2.56063 0.540039 3.28998V18.72C0.540039 19.4493 0.829772 20.1488 1.3455 20.6646C1.86122 21.1803 2.56069 21.47 3.29004 21.47H9.83004H9.91004H11.71C11.8718 21.47 12.027 21.4057 12.1414 21.2913C12.2558 21.1769 12.32 21.0218 12.32 20.86V13.39C12.3214 13.3498 12.3146 13.3097 12.3001 13.2721C12.2857 13.2345 12.2638 13.2003 12.2358 13.1714C12.2078 13.1425 12.1743 13.1195 12.1372 13.1038C12.1001 13.0881 12.0603 13.08 12.02 13.08H9.58004V10.74H12.02C12.0603 10.74 12.1001 10.7319 12.1372 10.7162C12.1743 10.7006 12.2078 10.6775 12.2358 10.6486C12.2638 10.6197 12.2857 10.5854 12.3001 10.5479C12.3146 10.5103 12.3214 10.4702 12.32 10.43V7.89001C12.32 7.42167 12.4124 6.9579 12.592 6.52533C12.7715 6.09276 13.0346 5.69985 13.3663 5.36914C13.6979 5.03843 14.0915 4.7764 14.5246 4.59808C14.9577 4.41977 15.4217 4.3287 15.89 4.33002H17.99V6.62H15.83C15.5065 6.62 15.1962 6.7485 14.9674 6.97729C14.7386 7.20609 14.61 7.5164 14.61 7.83997V10.38C14.6087 10.4202 14.6155 10.4603 14.6299 10.4979C14.6444 10.5354 14.6663 10.5697 14.6943 10.5986C14.7223 10.6276 14.7558 10.6506 14.7929 10.6663C14.83 10.682 14.8698 10.69 14.91 10.69H17.91L17.52 13.03H14.9C14.8598 13.0299 14.8199 13.0381 14.7829 13.0538C14.7458 13.0695 14.7123 13.0925 14.6843 13.1214C14.6563 13.1503 14.6344 13.1845 14.6199 13.2221C14.6055 13.2597 14.5987 13.2997 14.6 13.34V21.16C14.5987 21.2002 14.6055 21.2403 14.6199 21.2779C14.6344 21.3155 14.6563 21.3497 14.6843 21.3786C14.7123 21.4075 14.7458 21.4305 14.7829 21.4462C14.8199 21.4619 14.8598 21.47 14.9 21.47H18.67C19.4003 21.4673 20.0998 21.1754 20.6152 20.6581C21.1306 20.1408 21.42 19.4403 21.42 18.71V3.28998C21.4202 2.56921 21.1373 1.87723 20.6323 1.36292C20.1274 0.848604 19.4407 0.553083 18.72 0.539978Z" fill="#000F16"/>
</svg>
