<svg fill="none" height="65" viewBox="0 0 198 65" width="198" xmlns="http://www.w3.org/2000/svg"><g fill="#fff"><path d="m70.7716 16.7639c-7.8399 0-14.2013 6.3118-14.2013 14.0402s6.3754 14.0433 14.2013 14.0433 14.2012-6.3118 14.2012-14.0433-6.366-14.0402-14.2012-14.0402zm.0309 21.397c-4.0623.0016-7.3583-3.2898-7.3599-7.3537-.0015-4.0624 3.2898-7.3584 7.3537-7.3599 4.0609-.0016 7.3538 3.2867 7.36 7.3475.0015 4.0639-3.2899 7.3599-7.3538 7.3661zm-24.9315-18.4555v24.3664h6.6525v-26.6205h-4.4092c-.3189-.0155-.6378.017-.9474.0944-.5713.1749-1.0172.6224-1.1937 1.1936-.0898.3143-.13.6394-.1192.9661h.0155zm-32.5143-2.2541v26.6205h4.4184c.3236.017.6487-.0155.963-.0944.5697-.175 1.0171-.6208 1.1936-1.1906.0836-.3158.1161-.6425.0975-.9691v-14.1006l13.1733 15.0217c.3437.449.7834.8159 1.2881 1.0729.5263.209 1.0914.2973 1.6565.2586h4.8504v-26.619h-4.4185c-.3251-.0171-.6502.0154-.966.0944-.2833.0852-.5419.2384-.7509.4474-.2043.209-.3545.4645-.4381.7447-.0805.3158-.1115.6409-.0945.966v14.1006l-13.1778-15.0217c-.3422-.4505-.7834-.8174-1.2881-1.0729-.5248-.209-1.0899-.2972-1.6534-.2585zm103.5573.5016c-2.246-.9274-4.822-1.3609-8.098-1.3609-1.79 0-5.157.1332-7.612 1.0218-4.6649 1.7541-6.8385 5.8567-6.8385 12.907s2.1147 11.2922 6.6525 13.0215c1.991.7633 4.664 1.1333 8.171 1.1333 6.312 0 9.718-1.2184 11.958-2.0266l.255-.0913-.656-2.0699-.28.1099c-2.285.8902-5.382 1.8021-10.98 1.8021-4.658 0-6.627-.6317-7.7-1.1302-3.2699-1.3732-4.7531-4.4122-4.8104-9.8462h24.3324l.124-.48c.438-1.5063.656-3.0669.647-4.6367 0-4.4432-1.496-6.8769-5.163-8.3569zm-1.038 1.8934c2.379 1.0217 3.853 2.4275 3.853 6.2143-.012 1.1286-.118 2.2541-.316 3.3641h-22.4761c.0604-5.2544 1.7866-8.5489 5.1321-9.7828 1.657-.6053 3.99-.9119 6.944-.9119 3.005-.0092 4.999.3159 6.87 1.1209l-.006-.0031zm34.714 21.3212c-2.575.7973-5.255 1.1998-7.95 1.1967-8.931 0-13.851-4.2064-13.851-11.8434 0-4.9417 1.799-8.4421 5.2-10.1234 1.991-1.0156 4.753-1.5311 8.205-1.5311 2.784-.0078 5.553.418 8.205 1.2617l.663-2.155c-2.866-.9072-5.854-1.3717-8.859-1.3794-3.935 0-7.22.6022-9.496 1.7417-4.276 2.1364-6.442 6.2483-6.442 12.2257 0 8.9716 5.971 14.1161 16.386 14.1161 2.909.0171 5.801-.4211 8.575-1.2973l-.638-2.2123zm26.153-12.9999c-1.751-.4985-4.242-.754-7.403-.754-3.79.0248-7.573.3406-11.314.9475.116-4.6104 1.364-7.0503 4.251-8.3786 1.765-.7834 4.002-1.1642 6.841-1.1642 4.829 0 7.801 1.0001 8.856 1.4289l.264.1069.799-2.0483-.255-.1068c-.644-.2554-4.207-1.607-9.768-1.607-3.215 0-5.828.4444-7.997 1.3609-2.762 1.1998-5.602 3.5917-5.602 12.2737 0 8.6821 2.677 12.0617 4.914 13.1191 2.346 1.1936 5.914 1.3345 8.388 1.3345 3.352 0 5.549-.2709 7.351-.9087 3.282-1.2092 4.683-3.7868 4.683-8.6697 0-4.033-1.197-6.1059-3.996-6.9311zm-7.987 14.2709c-2.525 0-4.929-.079-6.905-1.0512-2.613-1.285-3.787-4.6832-3.822-11.0043 3.692-.6084 7.429-.9026 11.171-.8809 3.155 0 4.968.1703 6.281.5837 1.893.5557 2.841 1.4986 2.841 5.1213 0 4.5825-1.808 5.8412-3.386 6.4279-1.477.5434-2.793.8019-6.179.8019z"/><path d="m40.0716 54.3374h.7602v9.5243h4.4029v.7168h-5.1646v-10.2411z"/><path d="m50.6487 54.3374h.7601v10.2411h-.7601z"/><path d="m62.2939 59.9698v-.6874h4.2419v3.6428c-.1858.2152-.4195.4289-.7029.6441-.2724.2245-.5852.4242-.9366.5991s-.7415.3174-1.1704.4242c-.4381.1068-.9165.161-1.4336.161-.8298 0-1.5698-.1517-2.2231-.4536-.6534-.3019-1.2045-.7029-1.6535-1.1998-.4489-.497-.7895-1.0682-1.0248-1.7123-.2338-.6332-.3515-1.288-.3515-1.9599s.1115-1.3067.336-1.9306.5558-1.1843.9954-1.6828c.4397-.4985.9754-.898 1.6101-1.1999.6332-.3018 1.3609-.4536 2.1798-.4536.7215 0 1.4042.1069 2.0482.322.6626.2245 1.2773.5651 1.8439 1.0249-.079.0883-.1409.1703-.1904.2493-.0202.0294-.0387.0588-.0589.0882-.0789.1177-.161.2338-.2492.3515-.9274-.8686-2.0575-1.302-3.3936-1.302-.6827 0-1.2973.1269-1.8438.3808-.5372.2632-.9908.6053-1.3609 1.0233-.3607.4196-.6393.9026-.8344 1.4491-.1951.5372-.2926 1.093-.2926 1.6674 0 .5743.1022 1.127.3065 1.6828.1951.5558.483 1.0481.8639 1.477.3808.4288.8484.7756 1.4042 1.0388.5465.2724 1.175.4102 1.8872.4102.8391 0 1.5311-.1269 2.0776-.3808.5465-.2431 1.0233-.5759 1.4336-.9955v-2.6767h-3.5112z"/><path d="m79.8793 59.3692h-6.51v5.208h-.7602v-10.241h.7602v4.3162h6.51v-4.3162h.7601v10.241h-.7601z"/><path d="m89.345 55.0542h-3.2914v-.7168h7.3444v.7168h-3.2774v9.5243h-.7756z"/><path d="m98.8102 54.3374h6.2468v.7168h-5.4712v3.8332h4.4622v.7168h-4.4622v4.2575h5.4712v.7168h-6.2468z"/><path d="m111.669 55.4927v9.0845h-.76v-10.241h.819l6.744 9.1295v-9.1295h.746v10.241h-.835l-6.715-9.0845z"/><path d="m141.179 54.3374v6.3939c0 .5945-.098 1.141-.293 1.6379-.204.497-.483.9212-.834 1.2726-.361.3514-.785.6239-1.273.819-.497.1951-1.039.2926-1.624.2926s-1.127-.0975-1.624-.2926-.921-.4676-1.273-.819c-.36-.3514-.639-.7756-.834-1.2726-.204-.4969-.307-1.0434-.307-1.6379v-6.3939h.776v6.4372c0 .4784.077.9212.234 1.3314.145.3995.365.7416.658 1.0249.283.2926.624.5171 1.023.6735.4.1563.849.2337 1.345.2337.497 0 .946-.0774 1.346-.2337.399-.1564.741-.3809 1.023-.6735.283-.2833.502-.6239.658-1.0249.147-.4102.22-.853.22-1.3314v-6.4372h.776z"/><path d="m147.469 54.3374h3.159c.518 0 .985.079 1.405.2338.419.1563.78.3762 1.082.6579.292.2834.522.6147.687.9955.157.3809.234.7896.234 1.2292 0 .4784-.093.9119-.279 1.302-.185.3902-.429.7215-.73.9955-.313.2833-.669.497-1.069.644-.399.1471-.819.2199-1.258.2199h-2.473v3.9648h-.76v-10.241zm5.75 3.1459c0-.3515-.055-.6781-.161-.98-.107-.2926-.279-.5465-.513-.7602-.234-.2136-.537-.3855-.907-.5124-.381-.1177-.835-.175-1.361-.175h-2.048v4.8272h2.091c.547 0 1.005-.0728 1.375-.2198.37-.1363.667-.3221.892-.5558.224-.2245.385-.4784.483-.7602.097-.2833.147-.5712.147-.8638z"/><path d="m48.586 7.23339v-5.09873h-1.6756v-1.10841h4.611v1.10841h-1.6756v5.09873z"/><path d="m60.7082 7.23314v-2.75805h-2.989v2.75805h-1.2597v-6.20714h1.2597v2.34067h2.989v-2.34067h1.2597v6.20714z"/><path d="m67.4642 7.23314v-6.20714h3.9995v1.10842h-2.7397v1.32093h2.2352v1.10842h-2.2352v1.56095h2.7397v1.10842z"/><path d="m87.142 7.23313-.4785-1.29494h-2.5455l-.4694 1.29494h-1.3484l2.4828-6.23313h1.2231l2.4829 6.23313h-1.3485zm-1.7474-4.77002-.8684 2.36819h1.7383l-.8684-2.36819z"/><path d="m93.2515 7.23314v-6.20714h1.2597v5.09872h2.5532v1.10842z"/><path d="m102.047 7.23314v-6.20714h1.26v5.09872h2.553v1.10842z"/><path d="m110.268 4.89239v-1.12677h2.97v1.12677z"/><path d="m122.868 7.23314-3.334-3.9108v3.9108h-1.242v-6.20714h.906l3.404 4.03464v-4.03464h1.242v6.20714z"/><path d="m129.342 7.23314v-6.20714h3.999v1.10842h-2.74v1.32093h2.236v1.10842h-2.236v1.56095h2.74v1.10842z"/><path d="m143.786 7.23314-1.393-4.12331-1.393 4.12331h-1.171l-1.95-6.20714h1.311l1.304 4.56668 1.438-4.56668h.975l1.463 4.60185 1.232-4.60185h1.312l-1.951 6.20714h-1.179z"/></g></svg>