<svg fill="none" height="65" viewBox="0 0 198 65" width="198" xmlns="http://www.w3.org/2000/svg" xmlns:xlink="http://www.w3.org/1999/xlink"><clipPath id="a"><path d="m0 0h198v65h-198z"/></clipPath><g clip-path="url(#a)" fill="#fff"><path d="m116.532 18.5863c-2.243-.9237-4.806-1.3538-8.063-1.3538-1.778 0-5.126.132-7.574 1.0184-4.6639 1.7543-6.8373 5.8465-6.8373 12.8759 0 7.0295 2.1129 11.2568 6.6503 12.9862 1.986.7607 4.645 1.1302 8.129 1.1302 6.283 0 9.65-1.2109 11.879-2.012l.339-.1211-.708-2.2308-.371.1443c-2.258.8803-5.313 1.7807-10.846 1.7807-4.596 0-6.529-.6334-7.593-1.1131-3.1821-1.3367-4.6414-4.2925-4.7066-9.563h24.0846l.141-.5449c.317-1.2171.643-2.4777.643-4.617 0-4.4555-1.498-6.8835-5.168-8.3769zm2.655 8.1192c0 .9346-.113 2.1237-.307 3.2384h-22.0838c.0777-5.106 1.7667-8.3086 5.0218-9.5211 1.63-.5961 3.93-.8973 6.834-.8973 2.905 0 4.937.3229 6.78 1.1115 2.317.9983 3.753 2.3613 3.753 6.0685z"/><path d="m158.339 17.2014v2.6593h17.17l-15.83 25.4119h3.15l16.013-25.8574.014-2.2138z"/><path d="m153.077 40.8035-.295.1304c-1.343.593-5.007 1.97-10.009 1.97-4.359 0-7.757-.9826-10.103-2.9201-2.417-1.9964-3.642-4.9662-3.642-8.8271 0-4.9026 1.782-8.3754 5.157-10.0427 1.976-1.0076 4.717-1.5199 8.144-1.5199 5.1 0 8.595 1.3615 9.911 1.8738l.366.1428.809-2.1734-.289-.1086c-1.487-.562-5.436-2.0539-10.798-2.0539-3.92 0-7.19.5992-9.459 1.7341-4.262 2.1299-6.421 6.2299-6.421 12.1866 0 8.9405 5.95 14.0681 16.324 14.0681 5.7 0 9.465-1.5757 10.882-2.1687l.28-.1164-.859-2.1719z"/><path d="m70.6735 16.9392c-7.8476 0-14.2343 6.3076-14.2343 14.062s6.3852 14.0619 14.2343 14.0619 14.2343-6.3091 14.2343-14.0619c0-7.7529-6.3852-14.062-14.2343-14.062zm.031 21.4283c-4.0611 0-7.3663-3.3036-7.3663-7.3663 0-4.0628 3.3052-7.3663 7.3663-7.3663 4.0612 0 7.3664 3.3051 7.3664 7.3663 0 4.0611-3.3052 7.3663-7.3664 7.3663z"/><path d="m45.7244 19.8844v24.4027h6.6615v-26.6584h-4.4058c-.3897 0-.666.0062-.9641.0962-.2826.0854-.5371.2391-.7467.4487-.2096.2095-.3633.4626-.4487.7467-.09.2996-.0962.5744-.0962.9656z"/><path d="m13.1805 17.6287v26.6584h4.4229c.3897 0 .666-.0062.9656-.0963.2826-.0853.5356-.239.7467-.4486.2096-.2096.3633-.4642.4487-.7467.09-.2996.0962-.5744.0962-.9641v-14.1225c4.3981 5.0144 8.7946 10.0287 13.1926 15.0431.4114.4688.7545.8321 1.2886 1.0743.5356.2422 1.0339.2608 1.658.2608h4.8575v-26.6584h-4.4229c-.3896 0-.6659.0062-.964.0962-.2826.0854-.5372.2391-.7467.4487-.2096.2095-.3633.4626-.4487.7467-.09.2996-.0962.5744-.0962.9656v14.1225c-4.3981-5.0144-8.7946-10.0287-13.1926-15.0431-.4114-.4704-.7545-.8321-1.2901-1.0743s-1.0339-.2608-1.658-.2608h-4.8591z"/><path d="m.492432 54.6248h6.264078v.7187h-5.48631v3.8439h4.47412v.7187h-4.47412v4.2692h5.48631v.7188h-6.264078z"/><path d="m11.8905 54.6248h.7622v9.5505h4.4151v.7188h-5.1789v-10.2693z"/><path d="m21.7639 54.6248h6.2641v.7187h-5.4863v3.8439h4.4741v.7187h-4.4741v4.2692h5.4863v.7188h-6.2641z"/><path d="m37.6236 60.2742v-.6893h4.2537v3.6529c-.1863.2158-.4208.43-.7049.6458-.2732.2251-.5868.4254-.9392.6008s-.7436.3183-1.1736.4254c-.4394.1071-.9191.1614-1.4376.1614-.8321 0-1.5741-.1521-2.2293-.4548-.6551-.3028-1.2078-.7048-1.658-1.2032-.4502-.4983-.7917-1.0712-1.0277-1.717-.2344-.6349-.3524-1.2916-.3524-1.9654 0-.6737.1118-1.3102.3369-1.9358.2251-.6257.5573-1.1877.9982-1.6875.4409-.4999.978-.9004 1.6145-1.2032.635-.3027 1.3646-.4548 2.1859-.4548.7234 0 1.408.1071 2.0538.3229.6645.2251 1.2808.5666 1.849 1.0277-.0792.0885-.1413.1708-.191.2499-.0201.0295-.0388.059-.0589.0885-.0792.118-.1615.2344-.25.3524-.9299-.8709-2.0632-1.3056-3.4029-1.3056-.6847 0-1.301.1273-1.849.3819-.5387.2639-.9935.607-1.3646 1.0262-.3617.4207-.6411.905-.8367 1.4531-.1956.5387-.2934 1.096-.2934 1.6719 0 .576.1024 1.1302.3073 1.6875.1956.5574.4844 1.051.8663 1.4811.3819.43.8507.7777 1.4081 1.0416.548.2733 1.1783.4114 1.8924.4114.8414 0 1.5353-.1273 2.0833-.3819.5481-.2437 1.0262-.5775 1.4376-.9982v-2.6841h-3.5209z"/><path d="m53.4818 61.9893h-5.3699l-1.1597 2.9047h-.8212l4.2257-10.2989h.8942l4.1963 10.2989h-.8073l-1.1597-2.9047zm-5.106-.6892h4.8421l-2.4203-5.9412-2.4202 5.9412z"/><path d="m60.8309 55.7844v9.1097h-.7623v-10.2693h.8212l6.7625 9.1547v-9.1547h.7482v10.2693h-.8367l-6.7345-9.1097z"/><path d="m78.6405 65.0713c-.8321 0-1.5788-.1522-2.2448-.4549-.6551-.2934-1.2124-.6893-1.672-1.1876-.4595-.4983-.8072-1.0712-1.0417-1.717-.2452-.635-.3663-1.2916-.3663-1.9654 0-.6737.118-1.3102.3524-1.9359.2344-.6256.5728-1.1876 1.0122-1.6875.4393-.4999.9827-.905 1.6285-1.2171.6458-.3027 1.3785-.4549 2.1998-.4549.8212 0 1.4872.1274 2.0833.382.5869.2639 1.0712.5728 1.4531.9236l-.4114.6008c-.4393-.4005-.9237-.6986-1.4531-.8942-.5278-.1863-1.0851-.2778-1.6719-.2778-.6847 0-1.3056.1319-1.863.3958-.548.2639-1.0075.607-1.3785 1.0277-.3819.4207-.6707.9051-.8663 1.4531-.1956.5387-.2934 1.096-.2934 1.672 0 .5759.1025 1.1302.3074 1.6875s.503 1.051.8942 1.481c.3819.43.8554.7778 1.4236 1.0417.5573.2639 1.1938.3959 1.9079.3959.3524 0 .6986-.0435 1.0417-.132.3322-.0885.6505-.2049.9532-.3524.3136-.1459.5915-.3229.8368-.5278.2546-.1956.4688-.4052.6458-.6303l.4254.6008c-.1662.1754-.3773.3664-.6303.5728-.2639.2158-.562.4114-.8942.5869-.3323.1754-.6986.3229-1.1007.4393-.3912.118-.8166.1754-1.2761.1754z"/><path d="m87.1649 54.6248h6.2641v.7187h-5.4863v3.8439h4.4741v.7187h-4.4741v4.2692h5.4863v.7188h-6.2641z"/><path d="m105.459 54.6248h.762v10.2693h-.762z"/><path d="m114.437 64.323c.4 0 .757-.059 1.071-.1754.313-.1071.577-.2593.792-.4549s.381-.4254.498-.6893c.118-.2546.175-.5325.175-.8367 0-.3043-.073-.5822-.22-.8073-.148-.2251-.343-.4207-.587-.5868-.255-.1661-.553-.3183-.894-.4549-.332-.1366-.7-.2686-1.101-.3959-.332-.1071-.66-.2344-.983-.3819-.332-.1366-.63-.3136-.894-.5278-.264-.2251-.475-.489-.63-.7917-.166-.3136-.25-.694-.25-1.1442 0-.3819.078-.7343.234-1.0556.148-.3136.353-.5869.617-.8213s.577-.4207.939-.5573c.362-.1273.748-.191 1.16-.191.645 0 1.221.1134 1.731.3369.518.2251.928.5092 1.232.8508l-.528.6023c-.332-.3136-.704-.5666-1.114-.7622-.412-.1956-.837-.2934-1.276-.2934-.323 0-.617.0543-.881.1614-.273.1071-.504.2499-.689.4254-.195.1754-.348.3772-.455.6023-.107.2344-.161.4797-.161.7328 0 .3229.068.5914.205.8072.127.2158.307.4068.543.5729.225.1661.498.3089.821.4254.314.1273.66.2592 1.042.3958.371.1273.733.2733 1.085.4394.353.1568.665.3431.939.5573.284.2251.503.4843.66.7778.166.2934.25.6458.25 1.0556 0 .4099-.077.8166-.234 1.1876-.166.3617-.396.6707-.69.9237-.293.2639-.645.4642-1.055.6024-.412.1459-.866.2204-1.365.2204-.528 0-1.096-.0931-1.701-.2779-.607-.1863-1.174-.4983-1.702-.9392l.44-.6598c.166.1568.366.3027.6.4394.235.1273.489.2452.763.3524.264.1071.537.1909.821.2499s.548.0885.792.0885z"/><path d="m129.576 54.6248h3.168c.519 0 .988.0791 1.408.2344.421.1568.783.3772 1.086.6598.293.2841.523.6163.689.9982.157.3819.234.7917.234 1.2326 0 .4797-.093.9144-.279 1.3056s-.43.7234-.733.9982c-.313.2841-.671.4984-1.071.6458-.401.1475-.821.2205-1.262.2205h-2.479v3.9758h-.763v-10.2694zm5.766 3.1545c0-.3524-.055-.68-.162-.9827-.107-.2934-.279-.548-.514-.7622-.234-.2143-.538-.3866-.909-.5139-.382-.118-.837-.1754-1.365-.1754h-2.054v4.8405h2.097c.548 0 1.008-.073 1.379-.2205.371-.1366.669-.3229.894-.5573.225-.2251.387-.4797.485-.7622.097-.2841.147-.5729.147-.8663z"/><path d="m140.198 59.7603c0-.7529.122-1.453.366-2.0973.244-.6458.591-1.2078 1.042-1.6875.439-.4797.978-.8554 1.614-1.1302.626-.2639 1.326-.3958 2.098-.3958.771 0 1.481.1319 2.097.3958.626.2733 1.164.6505 1.614 1.1302.451.4797.797 1.0417 1.042 1.6875.244.6458.366 1.3444.366 2.0973 0 .753-.122 1.4423-.366 2.0974-.245.6458-.591 1.2078-1.042 1.6875-.45.4797-.987.8507-1.614 1.1146-.616.2733-1.315.4114-2.097.4114-.783 0-1.472-.1366-2.098-.4114-.636-.2639-1.173-.6349-1.614-1.1146-.451-.4797-.798-1.0417-1.042-1.6875-.245-.6551-.366-1.3537-.366-2.0974zm9.432 0c0-.6349-.102-1.2279-.307-1.7744-.205-.5573-.494-1.0463-.866-1.467-.373-.4208-.822-.753-1.349-.9983-.528-.2437-1.126-.3663-1.79-.3663-.665 0-1.253.1226-1.79.3663-.539.2453-.994.5775-1.365.9983-.382.4207-.671.9097-.866 1.467-.205.548-.308 1.1395-.308 1.7744 0 .635.103 1.2172.308 1.7745.195.5573.484 1.0463.866 1.467.371.4207.826.753 1.365.9982.537.2453 1.134.3664 1.79.3664.655 0 1.262-.1226 1.79-.3664.527-.2437.978-.5775 1.349-.9982s.659-.9097.866-1.467c.205-.5573.307-1.1488.307-1.7745z"/><path d="m161.207 55.7549-2.846 9.2712h-.88l-3.139-10.4013h.821l2.802 9.5505 2.891-9.5505h.719l2.89 9.5505 2.816-9.5505h.808l-3.139 10.4013h-.867l-2.875-9.2712z"/><path d="m172.928 54.6248h6.264v.7187h-5.486v3.8439h4.474v.7187h-4.474v4.2692h5.486v.7188h-6.264z"/><path d="m187.819 60.5084h-2.714v4.3872h-.778v-10.2694h3.61c.489 0 .934.0792 1.335.2344.4.1568.743.3664 1.026.6303.284.2733.503.5915.66.9532.156.3617.234.7483.234 1.1581 0 .3524-.059.68-.175.9827-.128.3028-.303.5822-.528.8368-.225.2453-.494.4502-.808.6163-.313.1754-.659.2981-1.041.3664l2.904 4.4896h-.953l-2.772-4.3872zm2.567-2.9186c0-.2934-.043-.5775-.132-.8507-.088-.2639-.239-.503-.455-.7188-.215-.2049-.504-.371-.866-.4983-.361-.118-.816-.1754-1.364-.1754h-2.466v4.4446h2.598c.518 0 .948-.0683 1.291-.2049.342-.1273.617-.2935.821-.4984.205-.2049.353-.4393.44-.7048.088-.2639.132-.5278.132-.7917z"/></g></svg>