<svg fill="none" height="65" viewBox="0 0 198 65" width="198" xmlns="http://www.w3.org/2000/svg" xmlns:xlink="http://www.w3.org/1999/xlink"><clipPath id="a"><path d="m0 0h198v65h-198z"/></clipPath><g clip-path="url(#a)" fill="#fff"><path d="m117.227 18.2654c-2.138-.8986-4.824-1.3526-7.983-1.3526s-5.726.3452-7.632 1.0525c-4.4822 1.6822-6.7551 6.0632-6.7551 13.042 0 6.9789 2.0366 11.1904 6.5991 12.969 1.917.7509 4.629 1.1318 8.074 1.1318 1.766.0202 3.53-.1011 5.278-.3592 1.813-.2845 2.879-.4943 3.544-.7073.952-.2845 1.835-.583 2.704-.9126l.841-.3172-.822-2.1392-.841.3281c-3.088 1.2157-6.664 1.8298-10.634 1.8298-3.218 0-5.732-.3716-7.478-1.11-3.2478-1.3308-4.7854-4.3842-4.9331-9.8488h24.6661l.126-.7431c.281-1.4987.44-3.0176.477-4.5411 0-4.3982-1.514-6.8094-5.226-8.319m-20.0415 11.3194c.1725-5.1474 1.8749-8.2521 5.1845-9.4787 1.644-.6032 3.997-.9095 6.976-.9095s5.225.37 6.966 1.1427c2.878 1.222 3.854 2.8077 3.854 6.2808.005.9919-.065 1.9822-.21 2.9632h-22.7705z"/><path d="m146.569 30.8802-15.355-2.3133c-.978-.1539-2.281-.7743-2.281-4.3671 0-2.2091.932-3.5632 2.945-4.2613 1.418-.4943 3.611-.7369 6.702-.7369 2.87 0 6.25.5302 10.045 1.5749l.841.2316.665-2.1687-.883-.2456c-3.978-1.1101-7.554-1.6822-10.628-1.6822-3.42 0-5.903.2985-7.572.9095-2.883 1.009-4.387 3.1886-4.387 6.3134 0 4.9998 2.335 6.4037 4.293 6.699l15.368 2.3134c1.497.2565 2.365.9608 2.365 3.7871 0 2.3133-.537 3.3441-.989 3.7871l-.028.0296c-.612.6716-1.038.8939-1.925 1.1784-1.907.5892-4.28.8877-7.055.8877-1.467-.0031-2.933-.0964-4.39-.2783-1.051-.1119-2.094-.2845-3.126-.513l-3.815-1.0199-.929 2.1626 4.164 1.0882c1.118.2426 2.248.4276 3.384.5535 1.527.1928 3.066.2907 4.605.2938 3.081 0 5.714-.3265 7.825-.967 2.111-.642 4.563-2.3615 4.563-7.0659 0-3.8244-1.358-5.7367-4.402-6.2015"/><path d="m71.172 16.9567c-7.8697 0-14.2733 6.3259-14.2733 14.0929 0 7.7671 6.4036 14.093 14.2733 14.093 7.8696 0 14.2732-6.3275 14.2732-14.093s-6.4036-14.0929-14.2732-14.0929zm.0311 21.4791c-4.0795 0-7.3862-3.3068-7.3862-7.3862s3.3067-7.3862 7.3862-7.3862c4.0794 0 7.3861 3.3068 7.3861 7.3862-.0046 4.0763-3.3083 7.3815-7.3861 7.3862z"/><path d="m46.1543 19.9104v24.4688h6.6803v-26.7323h-4.4168c-.3249-.0171-.6498.0155-.9654.0964-.5737.1756-1.023.6249-1.1986 1.1986-.0824.3156-.1135.6421-.0964.967"/><path d="m13.5221 17.6469v26.7322h4.4339c.3249.0172.6514-.0155.967-.0963.5736-.1757 1.0229-.625 1.1986-1.1987.0824-.3156.1135-.6421.0964-.967v-14.1613l13.227 15.0848c.4213.4711.7556.8411 1.2935 1.0774s1.0354.2627 1.6619.2627h4.8723v-26.7338h-4.4339c-.3249-.0171-.6514.0155-.967.0964-.5737.1756-1.023.6234-1.1986 1.197-.0809.3156-.1135.6421-.0964.967v14.1629l-13.227-15.0832c-.4213-.4711-.7556-.8411-1.2935-1.0789-.5379-.2379-1.0369-.2612-1.6619-.2612z"/><path d="m175.938 28.4735c-1.761-.5052-4.259-.7586-7.425-.7586-4.222 0-7.871.4415-11.187.9374.137-4.4696 1.365-6.842 4.176-8.1339 1.75-.7758 3.969-1.1551 6.787-1.1551 4.804 0 7.758.9934 8.804 1.4194l.37.1508.88-2.2574-.357-.1446c-.658-.272-4.235-1.6277-9.807-1.6277-3.227 0-5.852.4477-8.039 1.3712-2.8 1.2095-5.661 3.6224-5.661 12.358s2.71 12.1325 4.971 13.2021c2.366 1.2048 5.94 1.3448 8.414 1.3448 3.365 0 5.565-.2737 7.381-.9173 3.33-1.2235 4.749-3.8446 4.749-8.7636 0-2.8792-.481-5.9683-4.073-7.0255m-8 14.2469c-2.495 0-4.896-.0793-6.847-1.037-2.551-1.2623-3.714-4.5924-3.753-10.8001 2.247-.4074 6.351-.8629 11.042-.8629 3.132 0 4.937.1664 6.241.5784 1.833.5379 2.765 1.4613 2.765 5.0091 0 2.5247-.395 5.2314-3.309 6.3103-1.472.5364-2.762.7929-6.142.7929"/><path d="m43.7445 54.6884h.7633v9.5642h4.4214v.7198h-5.1863v-10.284z"/><path d="m55.1012 54.6884h.7633v10.284h-.7633z"/><path d="m63.0642 54.6884h6.0974v.7198h-5.3185v4.1727h4.3048v.7198h-4.3048v4.6717h-.7789z"/><path d="m75.7719 54.6884h6.273v.7198h-5.4942v3.8493h4.4805v.7198h-4.4805v4.2753h5.4942v.7198h-6.273z"/><path d="m97.0303 54.6884h.7633v10.284h-.7633z"/><path d="m107.49 64.3987c.401 0 .759-.059 1.073-.1756.314-.1073.578-.2597.792-.4555.215-.1959.383-.426.5-.6903.118-.255.175-.5333.175-.838s-.073-.583-.221-.8084c-.147-.2254-.343-.4213-.587-.5877-.255-.1663-.554-.3187-.896-.4555-.332-.1368-.699-.2689-1.102-.3964-.333-.1073-.661-.2348-.984-.3824-.333-.1369-.631-.3141-.896-.5286-.264-.2255-.475-.4897-.631-.7929-.166-.314-.25-.6949-.25-1.1458 0-.3824.078-.7353.235-1.0571.147-.3141.353-.5877.617-.8225.264-.2347.578-.4213.941-.5581.362-.1275.749-.1912 1.159-.1912.647 0 1.225.1135 1.734.3374.519.2254.929.5099 1.234.8519l-.528.6032c-.333-.314-.706-.5674-1.117-.7633-.412-.1959-.838-.2939-1.278-.2939-.323 0-.617.0545-.881.1617-.274.1073-.505.2503-.69.426-.196.1757-.349.3778-.456.6032-.107.2348-.162.4804-.162.7338 0 .3234.069.5923.206.8084.127.2161.307.4073.544.5737.225.1663.499.3094.822.426.314.1275.661.2596 1.043.3964.372.1275.734.2736 1.087.44.353.157.665.3436.941.5581.284.2254.503.485.66.7789.167.2938.251.6467.251 1.0571 0 .4105-.078.8178-.235 1.1894-.166.3622-.397.6716-.69.925-.294.2643-.647.4648-1.058.6032-.412.1461-.867.2207-1.366.2207-.529 0-1.098-.0932-1.704-.2782-.608-.1866-1.175-.4991-1.704-.9406l.44-.6607c.166.157.367.3031.603.4399.235.1275.49.2457.764.3529.264.1073.538.1913.822.2503.285.0591.549.0887.793.0887z"/><path d="m124.782 59.8312c0-.754.123-1.4552.367-2.1004.244-.6467.593-1.2095 1.043-1.6899.44-.4804.98-.8566 1.616-1.1318.626-.2643 1.327-.3964 2.1-.3964s1.483.1321 2.1.3964c.627.2737 1.166.6514 1.616 1.1318.451.4804.797 1.0432 1.043 1.6899.244.6468.367 1.3464.367 2.1004s-.123 1.4442-.367 2.1003c-.246.6467-.592 1.2095-1.043 1.6899s-.989.852-1.616 1.1163c-.617.2736-1.316.4119-2.1.4119s-1.474-.1368-2.1-.4119c-.638-.2643-1.176-.6359-1.616-1.1163-.45-.4804-.799-1.0432-1.043-1.6899-.245-.6561-.367-1.3557-.367-2.1003zm9.446 0c0-.6359-.102-1.2298-.307-1.777-.206-.5581-.495-1.0478-.868-1.4691-.371-.4214-.822-.7541-1.351-.9997-.528-.2441-1.127-.3669-1.792-.3669-.666 0-1.255.1228-1.793.3669-.538.2456-.993.5783-1.366.9997-.383.4213-.672.911-.868 1.4691-.205.5488-.309 1.1411-.309 1.777 0 .6358.102 1.2188.309 1.7769.196.5582.485 1.0479.868 1.4692.371.4213.827.754 1.366.9996.538.2457 1.137.3669 1.793.3669s1.264-.1228 1.792-.3669c.529-.2441.98-.5783 1.351-.9996.372-.4213.661-.911.868-1.4692.205-.5581.307-1.1504.307-1.7769z"/><path d="m142.192 55.8497v9.1227h-.764v-10.284h.823l6.772 9.1678v-9.1678h.749v10.284h-.838l-6.744-9.1227z"/><path d="m48.586 7.23339v-5.09873h-1.6756v-1.10841h4.611v1.10841h-1.6756v5.09873z"/><path d="m60.7082 7.23314v-2.75805h-2.989v2.75805h-1.2597v-6.20714h1.2597v2.34067h2.989v-2.34067h1.2597v6.20714z"/><path d="m67.4642 7.23314v-6.20714h3.9995v1.10842h-2.7397v1.32093h2.2352v1.10842h-2.2352v1.56095h2.7397v1.10842z"/><path d="m87.142 7.23313-.4785-1.29494h-2.5455l-.4694 1.29494h-1.3484l2.4828-6.23313h1.2231l2.4829 6.23313h-1.3485zm-1.7474-4.77002-.8684 2.36819h1.7383l-.8684-2.36819z"/><path d="m93.2515 7.23314v-6.20714h1.2597v5.09872h2.5532v1.10842z"/><path d="m102.047 7.23314v-6.20714h1.26v5.09872h2.553v1.10842z"/><path d="m110.268 4.89239v-1.12677h2.97v1.12677z"/><path d="m122.868 7.23314-3.334-3.9108v3.9108h-1.242v-6.20714h.906l3.404 4.03464v-4.03464h1.242v6.20714z"/><path d="m129.342 7.23314v-6.20714h3.999v1.10842h-2.74v1.32093h2.236v1.10842h-2.236v1.56095h2.74v1.10842z"/><path d="m143.786 7.23314-1.393-4.12331-1.393 4.12331h-1.171l-1.95-6.20714h1.311l1.304 4.56668 1.438-4.56668h.975l1.463 4.60185 1.232-4.60185h1.312l-1.951 6.20714h-1.179z"/></g></svg>