<svg fill="none" height="65" viewBox="0 0 198 65" width="198" xmlns="http://www.w3.org/2000/svg"><g fill="#fff"><path d="m115.794 18.5464c-2.099-.8821-4.74-1.3301-7.848-1.3301s-5.629.3394-7.503 1.0381c-4.4081 1.6481-6.6433 5.9641-6.6433 12.8286s2.0013 11.0062 6.4883 12.7537c1.885.7384 4.558 1.113 7.939 1.113 1.737.0168 3.472-.104 5.191-.3608 1.784-.2783 2.833-.4877 3.487-.6956.928-.2783 1.804-.5734 2.657-.8975l.826-.3088-.812-2.1037-.822.3195c-3.037 1.1941-6.556 1.7995-10.456 1.7995-3.168 0-5.639-.3669-7.356-1.0932-3.1933-1.3102-4.7069-4.3128-4.8506-9.6852h24.2506l.125-.7308c.309-1.8331.465-3.336.465-4.4658.003-4.3251-1.486-6.6948-5.137-8.1824zm-19.701 11.1331c.1697-5.062 1.8422-8.1151 5.099-9.3214 1.614-.5947 3.923-.8944 6.858-.8944 2.936 0 5.139.3669 6.852 1.1237 2.83 1.2032 3.784 2.7627 3.784 6.1796.003.9755-.067 1.9493-.212 2.9125h-22.3826z"/><path d="m144.654 30.953-15.091-2.278c-.964-.1544-2.243-.7613-2.243-4.293 0-2.1755.917-3.5056 2.886-4.1921 1.393-.4877 3.552-.7247 6.593-.7247 2.82 0 6.143.5214 9.878 1.5472l.821.2309.654-2.1328-.867-.2415c-3.915-1.0931-7.43-1.6466-10.453-1.6466-3.363 0-5.805.292-7.453.8913-2.818.9923-4.308 3.1357-4.308 6.1919 0 4.9198 2.296 6.2989 4.223 6.5909l15.114 2.278c1.472.2537 2.322.9463 2.322 3.7334 0 2.2826-.527 3.2901-.972 3.7335l-.026.029c-.604.659-1.023.8761-1.893 1.1558-1.876.581-4.21.8745-6.938.8745-1.443-.003-2.885-.0948-4.317-.2752-1.034-.11-2.061-.2782-3.076-.503l-3.752-1.0029-.913 2.1267 4.096 1.0702c1.099.2369 2.209.4189 3.327.5442 1.502.1865 3.016.2829 4.53.2859 3.028 0 5.618-.3195 7.694-.9509 2.046-.6192 4.489-2.3224 4.489-6.9487.002-3.7579-1.327-5.6384-4.325-6.097z"/><path d="m175.445 30.5204c1.131-1.0259 1.685-2.9094 1.685-5.7195 0-2.81-.518-5.646-4.267-6.7712-1.748-.5458-4.154-.8134-7.354-.8134s-5.603.266-7.355.8134c-3.027.957-4.264 2.9415-4.264 6.84 0 2.8315.556 4.7013 1.703 5.6767-1.537 1.1221-2.434 3.4047-2.434 6.2958 0 3.7732 1.521 6.2132 4.531 7.2574 1.704.5657 4.335.8516 7.825.8516s6.129-.2859 7.837-.8561c3-1.0397 4.521-3.4797 4.521-7.2529-.006-2.8269-.965-5.2516-2.428-6.3218zm-1.885-1.3928c-.327.1544-1.038.3379-2.575.3379h-11.234c-1.308 0-2.012-.2171-2.371-.3929-.815-.4189-1.238-1.8255-1.238-4.0653 0-3.1769.821-4.163 2.073-4.6737 1.322-.5809 3.776-.8745 7.3-.8745s5.979.2936 7.32.8822c1.239.5076 2.055 1.4769 2.055 4.5605-.006 1.639-.237 3.7014-1.329 4.238v-.0122zm-16.172 2.9415c.446-.2354 1.182-.3547 2.189-.3547h11.901c.888 0 1.626.1193 2.134.3455 1.306.5825 1.939 2.1664 1.939 4.8496 0 2.1663-.609 3.6249-1.849 4.4611-.722.4648-1.627.8088-2.766 1.0305-1.21.2003-3.083.3012-5.572.3012-4.527 0-6.657-.3547-8.111-1.3607-1.105-.7446-1.789-1.7353-1.789-4.3618 0-2.6266.644-4.2793 1.925-4.9092v-.003z"/><path d="m70.5075 17.2607c-7.7391 0-14.0364 6.2194-14.0364 13.8667 0 7.6474 6.2973 13.8683 14.0364 13.8683 7.739 0 14.0364-6.2209 14.0364-13.8683 0-7.6473-6.2974-13.8667-14.0364-13.8667zm.0305 21.1318c-4.0117 0-7.2635-3.2518-7.2635-7.2635s3.2518-7.2636 7.2635-7.2636 7.2636 3.2519 7.2636 7.2636c-.0061 4.0101-3.2549 7.259-7.2636 7.2635z"/><path d="m45.9053 20.1609v24.0672h6.568v-26.2886h-4.3435c-.3195-.0184-.6421.0137-.9524.0947-.5642.1728-1.0045.6146-1.1773 1.1773-.0795.3088-.1116.6299-.0948.9494z"/><path d="m13.8101 17.9395v26.2886h4.3618c.3195.0183.6421-.0138.9524-.0948.5642-.1728 1.0045-.6146 1.1773-1.1772.0795-.3104.1116-.6314.0948-.9525v-13.9309l13.0105 14.8436c.4051.4648.743.8225 1.2705 1.061.5274.2385 1.0182.2569 1.6358.2569h4.7991v-26.2947h-4.3695c-.3195-.0184-.6421.0137-.9524.0947-.5642.1728-1.0045.6146-1.1772 1.1773-.0795.3103-.1117.6314-.0948.9524v13.9309l-13.0106-14.8329c-.4051-.4648-.743-.8225-1.2704-1.061-.5275-.2385-1.0198-.2569-1.6359-.2569z"/><path d="m23.7631 60.1583h-2.6724v4.3205h-.766v-10.1133h3.5546c.4816 0 .9204.0779 1.3148.2308.3944.1544.7323.3608 1.0106.6207.2798.2691.4953.5825.6497.9388.1544.3562.2309.7369.2309 1.1405 0 .347-.0581.6696-.1728.9678-.1253.2981-.2981.5733-.5198.824-.2217.2416-.4862.4434-.795.607-.3088.1727-.6497.2935-1.0258.3608l2.8604 4.4214h-.9387l-2.7305-4.3205zm2.5287-2.8742c0-.289-.0428-.5688-.1299-.8379-.0872-.2599-.2355-.4953-.448-.7078-.2125-.2018-.4969-.3654-.8531-.4908-.3562-.1162-.8042-.1727-1.3438-.1727h-2.4279v4.3771h2.5578c.5106 0 .9341-.0673 1.272-.2018.3364-.1254.607-.289.8088-.4908s.347-.4327.4326-.6941c.0872-.2599.13-.5198.13-.7797z"/><path d="m32.4883 54.3658h6.1689v.7079h-5.403v3.7854h4.4062v.7079h-4.4062v4.2043h5.403v.7079h-6.1689z"/><path d="m44.0035 54.3658h3.4094c.7415 0 1.4065.1391 1.9936.4189.5779.2889 1.0687.6696 1.4738 1.1405.4052.4724.7171 1.0121.9387 1.6175.211.5978.318 1.2231.318 1.879s-.1055 1.272-.318 1.879c-.2216.6069-.5351 1.1466-.9387 1.6175-.4051.4724-.8959.847-1.4738 1.1268-.5871.2889-1.2521.4326-1.9936.4326h-3.4094v-10.1133zm7.3401 5.0574c0-.6069-.0918-1.1757-.2752-1.7046-.1927-.5198-.4617-.977-.8088-1.373-.347-.3944-.7614-.7078-1.243-.9387-.4815-.2216-1.0212-.3317-1.6175-.3317h-2.6296v8.6976h2.6296c.5978 0 1.136-.1162 1.6175-.347.4816-.2217.896-.529 1.243-.925.3471-.3944.6161-.8577.8088-1.3867.1834-.5198.2752-1.0839.2752-1.6909z"/><path d="m57.2664 54.3658h6.1689v.7079h-5.403v3.7854h4.4062v.7079h-4.4062v4.2043h5.403v.7079h-6.1689z"/><path d="m68.7816 54.3658h5.9962v.7079h-5.2302v4.1034h4.2334v.7079h-4.2334v4.5942h-.766z"/><path d="m80.1226 54.3658h.7506v10.1134h-.7506z"/><path d="m87.5484 55.5063v8.9713h-.7507v-10.1133h.8088l6.6597 9.0156v-9.0156h.7369v10.1133h-.8241l-6.6321-8.9713z"/><path d="m100.927 54.3658h6.169v.7079h-5.403v3.7854h4.406v.7079h-4.406v4.2043h5.403v.7079h-6.169z"/><path d="m119.521 54.3658h3.121c.51 0 .972.078 1.386.2309.415.1544.771.3715 1.069.6498.289.2797.515.6069.679.983.154.3761.231.7797.231 1.2139 0 .4724-.092.9005-.276 1.2858-.183.3853-.423.7124-.721.983-.309.2798-.661.4908-1.055.636-.395.1453-.809.2171-1.243.2171h-2.442v3.9154h-.75v-10.1133zm5.678 3.1067c0-.3471-.053-.6697-.159-.9678-.105-.2889-.275-.5397-.506-.7507-.231-.2109-.53-.3806-.896-.506-.376-.1162-.824-.1728-1.343-.1728h-2.023v4.767h2.065c.54 0 .993-.0719 1.358-.2171.365-.1345.659-.318.881-.5489.221-.2216.38-.4724.477-.7506.096-.2798.145-.5642.145-.8531z"/><path d="m134.502 60.1587h-2.672v4.3205h-.766v-10.1134h3.555c.481 0 .92.078 1.314.2309.395.1544.733.3608 1.011.6207.28.2691.495.5825.65.9387.154.3563.231.7369.231 1.1406 0 .347-.058.6696-.173.9677-.125.2981-.298.5733-.52.8241-.222.2415-.486.4433-.795.6069-.309.1728-.65.2936-1.026.3608l2.861 4.4215h-.939l-2.731-4.3206zm2.529-2.8743c0-.2889-.043-.5687-.13-.8378-.087-.2599-.235-.4953-.448-.7078-.212-.2019-.497-.3654-.853-.4908-.356-.1162-.804-.1728-1.344-.1728h-2.427v4.3771h2.557c.511 0 .934-.0672 1.272-.2018.337-.1253.607-.2889.809-.4907s.347-.4327.433-.6941c.087-.2599.13-.5198.13-.7798z"/><path d="m143.229 54.3658h.751v10.1134h-.751z"/><path d="m158.499 56.0415-3.915 6.5878-3.929-6.5878v8.4377h-.751v-10.1134h.636l4.046 6.8631 4.031-6.8631h.65v10.1134h-.766v-8.4377z"/><path d="m165.189 54.3658h6.169v.7079h-5.403v3.7854h4.407v.7079h-4.407v4.2043h5.403v.7079h-6.169z"/><path d="m48.586 7.23339v-5.09873h-1.6756v-1.10841h4.611v1.10841h-1.6756v5.09873z"/><path d="m60.7082 7.23314v-2.75805h-2.989v2.75805h-1.2597v-6.20714h1.2597v2.34067h2.989v-2.34067h1.2597v6.20714z"/><path d="m67.4641 7.23314v-6.20714h3.9995v1.10842h-2.7397v1.32093h2.2352v1.10842h-2.2352v1.56095h2.7397v1.10842z"/><path d="m87.142 7.23313-.4785-1.29494h-2.5455l-.4694 1.29494h-1.3484l2.4828-6.23313h1.2231l2.4829 6.23313h-1.3485zm-1.7474-4.77002-.8684 2.36819h1.7383l-.8684-2.36819z"/><path d="m93.2513 7.23314v-6.20714h1.2598v5.09872h2.5532v1.10842z"/><path d="m102.047 7.23314v-6.20714h1.26v5.09872h2.553v1.10842z"/><path d="m110.268 4.89239v-1.12677h2.97v1.12677z"/><path d="m122.868 7.23314-3.334-3.9108v3.9108h-1.242v-6.20714h.906l3.404 4.03464v-4.03464h1.242v6.20714z"/><path d="m129.342 7.23314v-6.20714h3.999v1.10842h-2.74v1.32093h2.236v1.10842h-2.236v1.56095h2.74v1.10842z"/><path d="m143.786 7.23314-1.393-4.12331-1.393 4.12331h-1.171l-1.95-6.20714h1.311l1.304 4.56668 1.438-4.56668h.975l1.463 4.60185 1.232-4.60185h1.312l-1.951 6.20714h-1.179z"/></g></svg>