<svg fill="none" height="65" viewBox="0 0 198 65" width="198" xmlns="http://www.w3.org/2000/svg"><g fill="#fff"><path d="m70.8739 17.0193c-7.7946 0-14.1371 6.2655-14.1371 13.9662s6.3425 13.9662 14.1371 13.9662 14.1371-6.2655 14.1371-13.9662c.0016-7.7007-6.341-13.9662-14.1371-13.9662zm.0323 21.2835c-4.0343 0-7.3157-3.2814-7.3157-7.3158 0-4.0343 3.2814-7.3157 7.3157-7.3157 4.0344 0 7.3157 3.2814 7.3157 7.3157 0 4.0344-3.2829 7.3158-7.3157 7.3158z"/><path d="m47.3775 17.7985c-.2818.0847-.5328.2371-.7406.4465-.2079.2079-.3604.4604-.4451.7407-.0893.2972-.0954.5713-.0954.9577v24.2369h6.6166v-26.4773h-4.3762c-.3896 0-.6621.0062-.9593.0955z"/><path d="m35.909 17.7985c-.2818.0847-.5328.2372-.7407.4466-.2079.2078-.3603.4604-.445.7406-.0893.2972-.0955.5713-.0955.9578v14.0263c-4.3685-4.9783-8.7369-9.9596-13.1039-14.9394-.4096-.4666-.7499-.8269-1.2811-1.0671-.5313-.2418-1.0271-.2587-1.6476-.2587h-4.8259c.0016 8.8247.0016 17.651.0016 26.4773h4.3931c.388 0 .6621-.0062.9578-.0955.2818-.0847.5328-.2371.7406-.445.2079-.2079.3604-.4604.445-.7407.0894-.2971.0955-.5712.0955-.9577v-14.0278c4.367 4.9798 8.7354 9.9611 13.1024 14.9409.408.4666.7483.8269 1.2796 1.0671.5312.2402 1.027.2587 1.6476.2587h4.8258v-26.4773h-4.3931c-.385 0-.6591.0046-.9562.0939z"/><path d="m116.449 18.5453c-2.231-.9192-4.779-1.3473-8.018-1.3473-1.767 0-5.096.1309-7.531 1.0132-4.6378 1.7446-6.7981 5.8144-6.7981 12.8052s2.1018 11.1945 6.6131 12.9145c1.974.7561 4.618 1.1241 8.084 1.1241 6.248 0 9.598-1.2042 11.814-2.0003l.336-.1201-.704-2.2189-.368.1433c-2.245.8746-5.283 1.7708-10.785 1.7708-4.572 0-6.493-.6298-7.551-1.1072-3.1646-1.3289-4.6166-4.2684-4.6813-9.5099h23.9503l.14-.5421c.314-1.2118.639-2.4637.639-4.5917 0-4.4347-1.489-6.8476-5.14-8.3336zm2.336 11.2947h-21.9607c.077-5.0784 1.7569-8.2627 4.9947-9.4684 1.62-.5929 3.907-.8931 6.797-.8931 2.891 0 4.909.3203 6.742 1.1056 2.305.9916 3.734 2.3482 3.734 6.0345-.002.9301-.114 2.1127-.307 3.2214z"/><path d="m125.741 19.6248h10.37v25.4595h2.737v-25.4595h10.369v-2.513h-23.476z"/><path d="m176.004 29.7198c-.729-.2433-3.351-1.0347-9.245-1.0347-3.42 0-7.689.4896-8.976.639v-9.7101h19.818v-2.413h-22.343v14.7793l.369-.0585c.062-.0093 6.018-.9747 10.793-.9747 4.408 0 6.988.3187 8.835 1.0332 1.548.6267 2.366 1.9848 2.366 4.5456 0 3.2397-1.169 4.7087-3.681 5.3247l-.012.0031c-1.749.4989-4.011.7421-7.359.7421-3.626 0-7.015-.4542-10.803-1.3873l-.305-.0755-.616 2.3082.305.0847c2.471.6837 6.835 1.4829 11.607 1.4829s6.072-.3527 7.895-.7623c4.478-1.0239 5.418-4.5732 5.418-7.6452.002-3.9111-1.367-6.0099-4.066-6.8815z"/><path d="m5.89465 54.3925h.75606v10.1859h-.75606z"/><path d="m17.1139 59.9959v-.6837h4.2191v3.6233c-.1848.214-.4173.4265-.6991.6405-.271.2233-.5821.4219-.9316.5959s-.7376.3157-1.1641.4219c-.4358.1063-.9116.1602-1.4259.1602-.8253 0-1.5614-.1509-2.2112-.4512-.6498-.3002-1.198-.6991-1.6445-1.1933-.4465-.4943-.7853-1.0625-1.0194-1.7031-.2325-.6298-.3495-1.2811-.3495-1.9494s.1109-1.2996.3341-1.9202c.2233-.6205.5528-1.1779.9901-1.6738.4374-.4958.9701-.8931 1.6015-1.1933.6298-.3003 1.3535-.4512 2.168-.4512.7176 0 1.3967.1063 2.0372.3203.6591.2233 1.2704.562 1.834 1.0194-.0786.0877-.1402.1693-.1894.2479-.0201.0292-.0385.0585-.0586.0877-.0785.1171-.1601.2325-.2479.3496-.9223-.8639-2.0464-1.295-3.3753-1.295-.679 0-1.2903.1262-1.8339.3788-.5343.2617-.9855.6021-1.3535 1.0178-.3588.4173-.6359.8977-.83 1.4413-.194.5343-.291 1.0871-.291 1.6584 0 .5712.1016 1.121.3049 1.6738.194.5528.4804 1.0424.8592 1.469.3788.4265.8438.7714 1.3966 1.0332.5436.271 1.1688.408 1.8771.408.8346 0 1.5229-.1262 2.0664-.3788.5436-.2417 1.0179-.5728 1.4259-.9901v-2.6623h-3.4923z"/><path d="m27.7648 55.5427v9.0357h-.7561v-10.1859h.8146l6.7075 9.0803v-9.0803h.7422v10.1859h-.83l-6.6798-9.0357z"/><path d="m41.3121 54.3925h.756v10.1859h-.756z"/><path d="m50.3633 55.1054h-3.2737v-.7129h7.3049v.7129h-3.2598v9.473h-.7714z"/><path d="m59.4144 54.3925h6.2132v.7129h-5.4418v3.8126h4.4378v.7129h-4.4378v4.2346h5.4418v.7129h-6.2132z"/><path d="m80.5423 55.1054h-3.2736v-.7129h7.3049v.7129h-3.2598v9.473h-.7715z"/><path d="m96.8244 59.3984h-6.475v5.18h-.756v-10.1859h.756v4.293h6.475v-4.293h.7561v10.1859h-.7561z"/><path d="m103.62 54.3925h6.213v.7129h-5.442v3.8126h4.438v.7129h-4.438v4.2346h5.442v.7129h-6.213z"/><path d="m124.968 64.0121c.397 0 .751-.0585 1.062-.174.311-.1063.573-.2572.786-.4512.214-.194.378-.4219.494-.6837.117-.2525.174-.5281.174-.8299s-.072-.5775-.219-.8007c-.146-.2233-.34-.4173-.582-.5821-.252-.1648-.548-.3157-.887-.4512-.329-.1355-.694-.2664-1.091-.3926-.33-.1063-.655-.2325-.975-.3788-.33-.1355-.625-.3111-.887-.5236-.262-.2232-.471-.485-.625-.7853-.165-.311-.248-.6883-.248-1.1348 0-.3788.077-.7284.232-1.0471.147-.311.35-.5821.612-.8146.261-.2325.572-.4173.931-.5528.359-.1262.742-.1894 1.15-.1894.641 0 1.212.1124 1.717.3342.515.2233.921.505 1.223.8438l-.524.5975c-.329-.3111-.699-.5621-1.105-.7561-.408-.194-.83-.291-1.266-.291-.32 0-.611.0539-.873.1601-.271.1063-.5.2479-.684.4219-.194.174-.345.3742-.451.5975-.106.2325-.16.4758-.16.7268 0 .3203.068.5867.203.8007.127.214.305.4034.539.5682.223.1647.495.3064.815.4219.311.1263.654.2571 1.033.3927.368.1262.727.271 1.076.4357.35.1555.659.3403.932.5528.282.2233.499.4804.654.7715.165.291.248.6405.248 1.047 0 .4066-.077.81-.232 1.178-.165.3588-.393.6652-.684.9162-.291.2618-.64.4604-1.047.5975-.408.1447-.859.2186-1.354.2186-.523 0-1.087-.0924-1.687-.2756-.602-.1848-1.164-.4943-1.688-.9316l.436-.6544c.165.1555.363.3002.596.4357.232.1263.485.2433.756.3496.262.1062.533.1894.814.2479.282.0585.544.0878.786.0878z"/><path d="m133.509 54.3925h6.214v.7129h-5.442v3.8126h4.438v.7129h-4.438v4.2346h5.442v.7129h-6.214z"/><path d="m145.936 55.5427v9.0357h-.756v-10.1859h.814l6.708 9.0803v-9.0803h.742v10.1859h-.83l-6.68-9.0357z"/><path d="m161.956 64.0121c.397 0 .751-.0585 1.062-.174.312-.1063.573-.2572.786-.4512.214-.194.379-.4219.494-.6837.117-.2525.174-.5281.174-.8299s-.072-.5775-.219-.8007c-.146-.2233-.34-.4173-.582-.5821-.252-.1648-.548-.3157-.887-.4512-.329-.1355-.694-.2664-1.091-.3926-.33-.1063-.655-.2325-.975-.3788-.33-.1355-.625-.3111-.887-.5236-.262-.2232-.471-.485-.625-.7853-.165-.311-.248-.6883-.248-1.1348 0-.3788.077-.7284.232-1.0471.147-.311.35-.5821.612-.8146s.573-.4173.931-.5528c.359-.1262.743-.1894 1.151-.1894.64 0 1.211.1124 1.717.3342.514.2233.92.505 1.222.8438l-.523.5975c-.33-.3111-.699-.5621-1.106-.7561-.408-.194-.83-.291-1.266-.291-.32 0-.611.0539-.873.1601-.271.1063-.5.2479-.684.4219-.194.174-.344.3742-.451.5975-.106.2325-.16.4758-.16.7268 0 .3203.068.5867.203.8007.127.214.305.4034.539.5682.224.1647.495.3064.815.4219.311.1263.654.2571 1.033.3927.368.1262.727.271 1.077.4357.349.1555.659.3403.931.5528.282.2233.499.4804.655.7715.164.291.247.6405.247 1.047 0 .4066-.077.81-.232 1.178-.165.3588-.393.6652-.684.9162-.291.2618-.64.4604-1.047.5975-.408.1447-.859.2186-1.353.2186-.524 0-1.087-.0924-1.688-.2756-.602-.1848-1.164-.4943-1.688-.9316l.436-.6544c.165.1555.364.3002.596.4357.233.1263.485.2433.756.3496.262.1062.533.1894.815.2479.281.0585.543.0878.785.0878z"/><path d="m170.497 54.3925h6.214v.7129h-5.442v3.8126h4.438v.7129h-4.438v4.2346h5.442v.7129h-6.214z"/><path d="m184.642 64.0121c.397 0 .752-.0585 1.063-.174.311-.1063.572-.2572.785-.4512.214-.194.379-.4219.494-.6837.117-.2525.174-.5281.174-.8299s-.072-.5775-.219-.8007c-.146-.2233-.34-.4173-.582-.5821-.252-.1648-.548-.3157-.887-.4512-.329-.1355-.694-.2664-1.091-.3926-.33-.1063-.655-.2325-.975-.3788-.329-.1355-.625-.3111-.887-.5236-.262-.2232-.471-.485-.625-.7853-.165-.311-.248-.6883-.248-1.1348 0-.3788.077-.7284.233-1.0471.146-.311.349-.5821.611-.8146s.573-.4173.931-.5528c.359-.1262.743-.1894 1.151-.1894.64 0 1.212.1124 1.717.3342.514.2233.92.505 1.222.8438l-.523.5975c-.33-.3111-.699-.5621-1.106-.7561-.408-.194-.83-.291-1.266-.291-.32 0-.611.0539-.873.1601-.271.1063-.5.2479-.683.4219-.194.174-.345.3742-.452.5975-.106.2325-.16.4758-.16.7268 0 .3203.068.5867.204.8007.126.214.304.4034.538.5682.224.1647.495.3064.815.4219.311.1263.654.2571 1.033.3927.368.1262.727.271 1.077.4357.349.1555.659.3403.931.5528.282.2233.499.4804.655.7715.164.291.248.6405.248 1.047 0 .4066-.077.81-.233 1.178-.165.3588-.393.6652-.684.9162-.291.2618-.64.4604-1.047.5975-.408.1447-.859.2186-1.353.2186-.524 0-1.087-.0924-1.688-.2756-.602-.1848-1.164-.4943-1.688-.9316l.436-.6544c.165.1555.364.3002.596.4357.233.1263.485.2433.756.3496.262.1062.533.1894.815.2479s.543.0878.785.0878z"/></g></svg>