<svg fill="none" height="65" viewBox="0 0 198 65" width="198" xmlns="http://www.w3.org/2000/svg" xmlns:xlink="http://www.w3.org/1999/xlink"><clipPath id="a"><path d="m0 0h198v65h-198z"/></clipPath><g clip-path="url(#a)" fill="#fff"><path d="m27.0507 54.582v7.8593c0 .4804-.084.8861-.2503 1.2187-.1757.3327-.3964.6032-.6606.8084-.2643.2051-.5581.3528-.8814.4399-.314.0886-.6265.1321-.9405.1321-.4803 0-.9311-.0979-1.3508-.2938-.4212-.1959-.8176-.5487-1.1891-1.057l.6311-.4695c.2549.412.5487.6949.8813.8519.3327.1663.6762.2502 1.0291.2502.2254 0 .4508-.0295.6762-.0886.2254-.059.4352-.1663.6311-.3233.1865-.1477.342-.3529.4694-.6171.1275-.2549.1912-.5783.1912-.97v-7.7412z"/><path d="m31.8976 59.7243c0-.7539.1228-1.455.3669-2.1001.244-.6466.5922-1.2094 1.043-1.6897.4399-.4803.9793-.8565 1.6167-1.1316.6264-.2643 1.3275-.3964 2.1-.3964.7726 0 1.483.1321 2.1001.3964.6264.2736 1.1658.6513 1.6166 1.1316s.7975 1.0431 1.0431 1.6897c.244.6467.3668 1.3462.3668 2.1001s-.1228 1.4441-.3668 2.1c-.2456.6467-.5923 1.2094-1.0431 1.6897-.4508.4804-.9886.8519-1.6166 1.1161-.6171.2736-1.3166.412-2.1001.412-.7834 0-1.4736-.1368-2.1-.412-.6374-.2642-1.1752-.6357-1.6167-1.1161-.4508-.4803-.799-1.043-1.043-1.6897-.2456-.6559-.3669-1.3554-.3669-2.1zm9.4449 0c0-.6358-.1026-1.2296-.3078-1.7768-.2052-.558-.4943-1.0477-.8674-1.4689-.373-.4213-.8223-.7539-1.3508-.9995-.5285-.2441-1.127-.3669-1.7923-.3669s-1.2544.1228-1.7923.3669c-.5393.2456-.9948.5782-1.3663.9995-.3824.4212-.6715.9109-.8674 1.4689-.2052.5488-.3078 1.141-.3078 1.7768s.1026 1.2187.3078 1.7767c.1959.5581.485 1.0477.8674 1.469.3715.4212.827.7539 1.3663.9995.5379.2456 1.1364.3668 1.7923.3668.656 0 1.2638-.1228 1.7923-.3668.5285-.2441.9793-.5783 1.3508-.9995.3716-.4213.6607-.9109.8674-1.469.2052-.558.3078-1.1503.3078-1.7767z"/><path d="m55.0201 54.5823v6.4199c0 .5969-.098 1.1456-.2938 1.6446-.2052.499-.485.9249-.8379 1.2777-.3622.3529-.7881.6265-1.2777.8223-.499.1959-1.0431.2938-1.6307.2938-.5875 0-1.1316-.0979-1.6306-.2938-.499-.1958-.9249-.4694-1.2777-.8223-.3622-.3528-.642-.7787-.8379-1.2777-.2052-.499-.3078-1.0477-.3078-1.6446v-6.4199h.7788v6.4634c0 .4803.0777.9249.2347 1.3368.1461.4011.3669.7446.6607 1.0291.2844.2938.6264.5192 1.0275.6762.401.157.8518.2347 1.3508.2347s.9498-.0777 1.3508-.2347c.4011-.157.7446-.3824 1.0275-.6762.2845-.2845.5036-.6265.6606-1.0291.1477-.4119.2208-.8565.2208-1.3368v-6.4634h.7788z"/><path d="m64.0981 60.4733h-2.7171v4.3929h-.7788v-10.2827h3.6141c.4896 0 .9358.0793 1.3368.2347.4011.157.7446.3669 1.0275.6311.2845.2736.5036.5923.6606.9545.157.3621.2348.7492.2348 1.1596 0 .3528-.0591.6808-.1757.984-.1275.3031-.3031.5829-.5285.8378-.2254.2456-.4943.4508-.8083.6171-.314.1757-.6607.2985-1.0431.3669l2.9084 4.4955h-.9544l-2.7763-4.3929zm2.5711-2.9224c0-.2937-.0435-.5782-.1321-.8518-.0886-.2643-.2394-.5036-.4555-.7197-.216-.2052-.5052-.3715-.8674-.499-.3621-.1181-.8176-.1756-1.3663-.1756h-2.4685v4.4504h2.6006c.5192 0 .9498-.0684 1.2933-.2052.342-.1275.6171-.2938.8223-.499s.3529-.4399.4399-.7057c.0886-.2643.1322-.5285.1322-.7928z"/><path d="m73.4405 55.7435v9.1215h-.7633v-10.2827h.8224l6.7712 9.1666v-9.1666h.7492v10.2827h-.8379l-6.7432-9.1215z"/><path d="m86.7496 54.5823h6.2722v.7197h-5.4934v3.8488h4.4799v.7197h-4.4799v4.2748h5.4934v.7197h-6.2722z"/><path d="m100.631 60.5607c-.303-.499-.602-.9995-.8955-1.4985-.2938-.499-.5922-.9995-.8954-1.4985-.5969-.9886-1.2-1.9835-1.8062-2.9814h.8813l3.0998 5.2587 3.084-5.2587h.911l-3.614 5.9784v4.3043h-.764v-4.3043z"/><path d="m122.768 61.9565h-5.377l-1.161 2.9084h-.822l4.231-10.3123h.895l4.202 10.3123h-.808l-1.162-2.9084zm-5.113-.6902h4.847l-2.423-5.9489z"/><path d="m136.663 59.6358h-6.536v5.2292h-.764v-10.2827h.764v4.3338h6.536v-4.3338h.763v10.2827h-.763z"/><path d="m143.156 54.5823h6.272v.7197h-5.493v3.8488h4.48v.7197h-4.48v4.2748h5.493v.7197h-6.272z"/><path d="m160.827 61.9565h-5.377l-1.159 2.9084h-.823l4.232-10.3123h.895l4.202 10.3123h-.809zm-5.112-.6902h4.848l-2.424-5.9489-2.423 5.9489z"/><path d="m167.423 54.5822h3.466c.754 0 1.43.1415 2.027.426.588.2938 1.087.6808 1.499 1.1596.412.4803.729 1.029.954 1.6446.215.6078.323 1.2436.323 1.9104 0 .6669-.107 1.2933-.323 1.9104-.225.6172-.544 1.1659-.954 1.6447-.412.4803-.911.8611-1.499 1.1456-.597.2938-1.273.4399-2.027.4399h-3.466v-10.2827zm7.463 5.1422c0-.6171-.094-1.1954-.28-1.7332-.196-.5286-.47-.9933-.822-1.3959-.353-.4011-.775-.7198-1.264-.9545-.49-.2254-1.039-.3373-1.645-.3373h-2.673v8.8433h2.673c.608 0 1.155-.1181 1.645-.3529.489-.2254.911-.5378 1.264-.9404.352-.4011.626-.8721.822-1.4099.186-.5285.28-1.1021.28-1.7192z"/><path d="m70.8057 16.8304c-7.8795 0-14.287 6.3236-14.287 14.1191 0 7.7956 6.4075 14.1192 14.287 14.1192s14.287-6.3236 14.287-14.1192c0-7.7955-6.409-14.1191-14.287-14.1191zm.042 21.5137c-4.0758 0-7.3961-3.3203-7.3961-7.3961s3.3203-7.3961 7.3961-7.3961 7.3961 3.3203 7.3961 7.3961-3.3203 7.3961-7.3961 7.3961z"/><path d="m47.063 17.6296c-.2938.084-.5456.2316-.757.4415-.2114.2098-.3575.4617-.4414.757-.084.2938-.1057.5876-.1057.9669v24.4982h6.681v-26.7693h-4.4333c-.3777 0-.6513 0-.9451.1057z"/><path d="m35.4668 17.6296c-.2736.084-.5456.2316-.757.4415-.2114.2098-.3575.4617-.4415.757-.0839.2954-.1057.5876-.1057.9669v14.1813c-4.4115-5.0427-8.8231-10.0651-13.2361-15.1078-.4197-.4616-.7571-.8409-1.3027-1.071-.5456-.2518-1.029-.2518-1.6601-.2518h-4.8732v26.7661h4.4333c.3995 0 .673 0 .9668-.1057.2938-.0839.5456-.2316.757-.4414.2115-.2099.3576-.4617.4415-.7571.084-.2937.1057-.5875.1057-.9668v-14.1813c4.4116 5.0426 8.8246 10.0635 13.2362 15.1062.4197.4616.757.8409 1.3026 1.071.5456.2518 1.0291.2518 1.6602.2518h4.8747v-26.7646h-4.4333c-.3777 0-.6513 0-.9668.1057z"/><path d="m116.88 18.3863c-2.248-.9249-4.833-1.3664-8.11-1.3664-1.786 0-5.147.1259-7.606 1.029-4.685 1.7644-6.8705 5.8821-6.8705 12.9424 0 7.0604 2.1218 11.3242 6.6805 13.0466 1.996.757 4.665 1.1347 8.174 1.1347 6.303 0 9.706-1.2187 11.933-2.0177l.336-.1259-.715-2.2477-.378.1477c-2.269.8829-5.336 1.786-10.904 1.786-4.623 0-6.555-.6295-7.626-1.113-3.1932-1.3446-4.6652-4.3074-4.7274-9.622h24.2024l.148-.5457c.316-1.2186.651-2.4995.651-4.6431 0-4.4753-1.512-6.9127-5.188-8.4034zm2.353 11.4081h-22.2068c.0839-5.1266 1.786-8.3614 5.0428-9.5599 1.638-.5876 3.95-.9031 6.871-.9031 2.92 0 4.958.3155 6.806 1.113 2.332 1.0088 3.782 2.3736 3.782 6.0934.022.9451-.105 2.1436-.293 3.2566z"/><path d="m126.25 19.4778h10.485v25.7169h2.773v-25.7169h10.485v-2.5415h-23.743z"/><path d="m177.053 29.6685c-.736-.2518-3.383-1.0508-9.35-1.0508-3.467 0-7.774.5036-9.077.6513v-9.8117h20.023v-2.4374h-22.564v14.9383l.377-.0637c.064-.0218 6.072-.9871 10.905-.9871 4.453 0 7.059.3155 8.929 1.0508 1.554.6296 2.395 2.0177 2.395 4.6012 0 3.2783-1.177 4.7488-3.718 5.3784h-.022c-1.764.5036-4.056.757-7.438.757-3.656 0-7.101-.4617-10.925-1.4083l-.315-.084-.63 2.3317.316.084c2.499.6932 6.912 1.4922 11.723 1.4922s6.136-.3575 7.984-.7772c4.517-1.029 5.484-4.6229 5.484-7.7318.022-3.9297-1.366-6.0515-4.097-6.9329z"/><path d="m184.738 19.2629h5.473v12.3097h2.448v-12.3097h5.473v-2.2431h-13.394z"/></g></svg>