<svg fill="none" height="65" viewBox="0 0 198 65" width="198" xmlns="http://www.w3.org/2000/svg" xmlns:xlink="http://www.w3.org/1999/xlink"><clipPath id="a"><path d="m0 0h198v65h-198z"/></clipPath><g clip-path="url(#a)" fill="#fff"><path d="m117.016 18.3152c-2.255-.9284-4.83-1.3607-8.102-1.3607-1.787 0-5.151.1322-7.611 1.0233-4.6871 1.7635-6.8705 5.8753-6.8705 12.9404s2.1243 11.3138 6.6825 13.0493c1.995.7636 4.667 1.1353 8.169 1.1353 6.314 0 9.698-1.2161 11.939-2.0217l.339-.1213-.711-2.2425-.371.1446c-2.269.8849-5.339 1.7884-10.899 1.7884-4.619 0-6.562-.636-7.631-1.1181-3.1988-1.3421-4.6653-4.314-4.7291-9.6109h24.2031l.141-.5474c.318-1.2239.647-2.4898.647-4.6406 0-4.4773-1.505-6.9173-5.194-8.4181zm2.669 8.1599c0 .9393-.113 2.1337-.308 3.255h-22.1934c.0777-5.132 1.7744-8.3497 5.0484-9.5673 1.637-.5988 3.948-.902 6.867-.902s4.961.3234 6.813 1.1166c2.33 1.003 3.773 2.3731 3.773 6.0993z"/><path d="m126.515 19.558h10.416v25.576h2.75v-25.576h10.416v-2.5241h-23.582z"/><path d="m155.763 16.9236v2.6733h17.254l-15.907 25.5372h3.166l16.093-25.9851.014-2.2254z"/><path d="m70.9291 16.8304c-7.8877 0-14.3043 6.3389-14.3043 14.1317 0 7.7929 6.4166 14.1318 14.3043 14.1318 7.8878 0 14.3044-6.3404 14.3044-14.1318 0-7.7913-6.4166-14.1317-14.3044-14.1317zm.0312 21.5343c-4.0823 0-7.4026-3.3203-7.4026-7.4026 0-4.0822 3.3203-7.4025 7.4026-7.4025 4.0822 0 7.4025 3.3203 7.4025 7.4025 0 4.0823-3.3203 7.4026-7.4025 7.4026z"/><path d="m45.857 19.7898v24.5232h6.6949v-26.7891h-4.4275c-.3919 0-.6687.0062-.9689.0964-.2846.0856-.5396.2395-.7496.451-.2115.2115-.3654.465-.451.7496-.0902.3002-.0964.5785-.0964.9704z"/><path d="m13.1504 17.5239v26.7907h4.4446c.3919 0 .6687-.0062.9704-.0964.2846-.0856.5397-.2395.7496-.451.2115-.2115.3639-.465.451-.7496.0902-.3001.0964-.577.0964-.9689v-14.1923c4.4198 5.0387 8.838 10.0789 13.2578 15.1177.4136.4712.7573.8366 1.2954 1.0808.5381.2441 1.0388.2613 1.6671.2613h4.8817v-26.7923h-4.4447c-.3919 0-.6687.0062-.9688.0964-.2846.0856-.5397.2395-.7496.451-.2115.2115-.3655.465-.451.7496-.0902.3002-.0964.5785-.0964.9704v14.1924c-4.4198-5.0387-8.838-10.079-13.2577-15.1177-.4137-.4727-.7574-.8366-1.2955-1.0808s-1.0388-.2613-1.6656-.2613h-4.8832z"/><path d="m6.38409 54.5754h.76359v9.5674h4.42282v.72h-5.18641z"/><path d="m16.642 54.5754h6.2751v.7201h-5.4959v3.8505h4.4819v.7201h-4.4819v4.2767h5.4959v.72h-6.2751z"/><path d="m34.6894 61.9527h-5.3792l-1.1617 2.9097h-.8227l4.2331-10.3169h.8958l4.2036 10.3169h-.8087l-1.1617-2.9097zm-5.1149-.6905h4.8506l-2.4245-5.9515-2.4245 5.9515z"/><path d="m41.655 54.5752h3.468c.7542 0 1.4307.1415 2.0279.4261.5879.2939 1.0871.6811 1.4992 1.1601.4121.4806.7294 1.0295.9549 1.6454.2146.608.3234 1.2441.3234 1.9113 0 .6671-.1073 1.2939-.3234 1.9113-.2255.6174-.5443 1.1663-.9549 1.6453-.4121.4806-.9113.8616-1.4992 1.1462-.5972.2939-1.2737.4401-2.0279.4401h-3.468v-10.2874zm7.4663 5.1444c0-.6174-.0933-1.1959-.2799-1.734-.196-.5287-.4697-.9937-.8227-1.3965-.353-.4012-.7745-.72-1.2643-.9549-.4899-.2255-1.0389-.3374-1.6454-.3374h-2.6749v8.8472h2.6749c.6081 0 1.1555-.1182 1.6454-.353.4898-.2255.9113-.5381 1.2643-.9408.353-.4013.6267-.8725.8227-1.4106.1866-.5287.2799-1.1026.2799-1.72z"/><path d="m64.7723 55.2955h-3.3062v-.7201h7.3776v.7201h-3.2922v9.5673h-.7792z"/><path d="m81.2167 59.6313h-6.5394v5.2315h-.7636v-10.2874h.7636v4.3358h6.5394v-4.3358h.7636v10.2874h-.7636z"/><path d="m88.0797 54.5754h6.275v.7201h-5.4959v3.8505h4.4819v.7201h-4.4819v4.2767h5.4959v.72h-6.275z"/><path d="m111.667 65.0401c-.834 0-1.582-.1524-2.249-.4557-.656-.2939-1.215-.6905-1.675-1.1897s-.809-1.073-1.044-1.72c-.245-.636-.367-1.2939-.367-1.9688 0-.675.119-1.3126.353-1.9393.235-.6267.574-1.1897 1.014-1.6905.441-.5007.985-.9066 1.632-1.2192.647-.3032 1.381-.4557 2.203-.4557.823 0 1.49.1276 2.087.3826.588.2644 1.074.5739 1.456.9253l-.412.6019c-.44-.4013-.925-.6998-1.456-.8958-.528-.1866-1.087-.2784-1.675-.2784-.685 0-1.307.1322-1.866.3966-.549.2644-1.009.6081-1.381 1.0295-.382.4215-.672.9067-.867 1.4556-.196.5397-.294 1.098-.294 1.6749 0 .577.102 1.1322.308 1.6905.205.5583.503 1.0528.895 1.4836.383.4308.857.7791 1.426 1.0435.559.2644 1.196.3966 1.912.3966.353 0 .699-.0436 1.043-.1322.333-.0886.652-.2053.955-.353.314-.1462.593-.3235.838-.5288.255-.1959.47-.4059.647-.6314l.426.6019c-.166.1757-.378.367-.631.5738-.264.2162-.563.4121-.896.5879-.333.1757-.7.3235-1.102.4401-.392.1182-.818.1757-1.279.1757z"/><path d="m127.878 59.6313h-6.54v5.2315h-.763v-10.2874h.763v4.3358h6.54v-4.3358h.763v10.2874h-.763z"/><path d="m141.002 61.9527h-5.38l-1.161 2.9097h-.823l4.233-10.3169h.896l4.203 10.3169h-.808l-1.162-2.9097zm-5.115-.6905h4.85l-2.424-5.9515-2.425 5.9515z"/><path d="m148.731 55.7371v9.1257h-.764v-10.2874h.823l6.774 9.1708v-9.1708h.75v10.2874h-.839l-6.746-9.1257z"/><path d="m166.881 60.2346v-.6905h4.261v3.6593c-.187.2162-.421.4308-.706.6469-.274.2255-.588.4262-.941.6019s-.745.3188-1.176.4261c-.44.1073-.92.1617-1.44.1617-.833 0-1.577-.1524-2.233-.4556-.656-.3033-1.21-.7061-1.661-1.2053s-.793-1.073-1.029-1.72c-.235-.636-.353-1.2939-.353-1.9688s.112-1.3126.337-1.9393c.226-.6267.558-1.1897 1-1.6904.442-.5008.98-.902 1.617-1.2053.637-.3032 1.367-.4556 2.19-.4556.725 0 1.411.1073 2.058.3234.665.2255 1.283.5677 1.852 1.0295-.08.0887-.142.1711-.192.2504-.02.0296-.038.0591-.059.0887-.079.1182-.161.2348-.25.353-.932-.8725-2.067-1.3079-3.409-1.3079-.686 0-1.303.1275-1.852.3826-.54.2643-.995.608-1.367 1.0279-.362.4215-.642.9067-.838 1.4557-.196.5396-.294 1.0979-.294 1.6749 0 .5769.102 1.1321.308 1.6904.196.5583.485 1.0529.867 1.4836.383.4308.853.7792 1.411 1.0435.549.2738 1.18.4122 1.896.4122.843 0 1.538-.1276 2.087-.3826.549-.2442 1.028-.5785 1.44-1v-2.6888h-3.527z"/><path d="m176.874 54.5754h6.275v.7201h-5.495v3.8505h4.481v.7201h-4.481v4.2767h5.495v.72h-6.275z"/></g></svg>