<svg width="40" height="41" viewBox="0 0 40 41" fill="none" xmlns="http://www.w3.org/2000/svg">
<path d="M2.21819 19.4622C1.99728 19.4622 1.78538 19.5501 1.62918 19.7064C1.47297 19.8627 1.38525 20.0746 1.38525 20.2956L1.38525 21.5956C1.38952 21.8153 1.47861 22.0248 1.6339 22.1801C1.78919 22.3355 1.99862 22.4247 2.21819 22.429L38.1343 22.429C38.3553 22.429 38.5671 22.3412 38.7233 22.1849C38.8795 22.0286 38.9673 21.8166 38.9673 21.5956C38.9673 21.0254 38.7409 20.4785 38.3379 20.0753C37.9348 19.6721 37.3882 19.4457 36.8183 19.4457L2.21819 19.4622Z" fill="black"/>
<path d="M19.4596 1.22674C19.3503 1.22541 19.2421 1.24696 19.1416 1.29002C19.0412 1.33307 18.9509 1.39662 18.8766 1.47668L0.468679 19.9267C0.320835 20.064 0.202915 20.2303 0.122266 20.4153C0.0416176 20.6003 0 20.7999 0 21.0017C0 21.2035 0.0416176 21.4031 0.122266 21.5881C0.202915 21.773 0.320835 21.9394 0.468679 22.0767L20.1426 40.4934C20.2956 40.6372 20.4991 40.715 20.709 40.71C20.8193 40.7082 20.9281 40.6836 21.0284 40.6378C21.1288 40.5919 21.2185 40.5256 21.2921 40.4434C21.6799 40.0274 21.8871 39.4746 21.8684 38.9061C21.8497 38.3375 21.6065 37.7995 21.1921 37.41L3.60052 20.9433L19.9927 4.54339C20.1909 4.3442 20.3475 4.10748 20.4534 3.84708C20.5592 3.58668 20.6121 3.30775 20.609 3.02667C20.6116 2.45957 20.39 1.91449 19.9927 1.51005C19.8556 1.3535 19.666 1.25272 19.4596 1.22674Z" fill="black"/>
</svg>
