<svg width="16" height="16" viewBox="0 0 16 16" fill="none" xmlns="http://www.w3.org/2000/svg">
<path fill-rule="evenodd" clip-rule="evenodd" d="M11.1537 8.5C10.9949 11.447 9.44473 12.8092 8.5 13.3541V8.5H11.1537ZM13.9795 8.5C13.7722 11.0122 12.0172 13.0856 9.67023 13.7645C10.7666 12.9032 12.0206 11.2953 12.1551 8.5H13.9795ZM13.9795 7.5H12.1536C11.9944 4.57547 10.4518 2.95557 9.24678 2.12971C11.8037 2.6701 13.7599 4.83883 13.9795 7.5ZM8.5 7.5H11.1517C10.9873 4.8576 9.53369 3.48475 8.5 2.83343V7.5ZM7.5 13.3535V8.5H4.84723C5.00602 11.446 6.55518 12.8083 7.5 13.3535ZM6.33131 13.7649C3.98353 13.0865 2.22784 11.0128 2.02054 8.5H3.84585C3.98044 11.2957 5.23481 12.9037 6.33131 13.7649ZM4.84928 7.5H7.5V2.83405C6.46637 3.48561 5.01359 4.85843 4.84928 7.5ZM6.75463 2.12942C5.54956 2.95518 4.00659 4.57512 3.84741 7.5H2.02054C2.24012 4.83834 4.197 2.6693 6.75463 2.12942ZM8 15C11.866 15 15 11.866 15 8C15 4.13401 11.866 1 8 1C4.13401 1 1 4.13401 1 8C1 11.866 4.13401 15 8 15Z" fill="white"/>
</svg>
