<svg width="128" height="18" viewBox="0 0 128 18" fill="none" xmlns="http://www.w3.org/2000/svg">
<path d="M0 0.441772V17.503H2.78206C3.0273 17.503 3.20118 17.4999 3.38913 17.4416C3.56703 17.3864 3.72683 17.2882 3.8585 17.1542C3.99117 17.0192 4.08665 16.8577 4.14093 16.6766C4.19822 16.4854 4.20123 16.3095 4.20123 16.059V7.01958C6.96721 10.2287 9.73319 13.4379 12.4992 16.648C12.7585 16.9487 12.9736 17.1808 13.3103 17.3363C13.647 17.4917 13.9606 17.503 14.3535 17.503H17.409V0.441772H14.6269C14.3817 0.441772 14.2078 0.44484 14.0198 0.503132C13.842 0.558357 13.6821 0.655511 13.5505 0.790503C13.4178 0.924473 13.3223 1.08708 13.2681 1.26809C13.2118 1.45933 13.2077 1.63625 13.2077 1.88578V10.9241C10.4418 7.715 7.67579 4.50586 4.90981 1.29672C4.6505 0.996059 4.43541 0.763914 4.09871 0.608468C3.76201 0.453022 3.44943 0.441772 3.05645 0.441772H0Z" fill="black"/>
<path d="M20.4717 1.88578V17.503H24.6619V0.441772H21.8909C21.6456 0.441772 21.4717 0.44484 21.2838 0.503132C21.1059 0.558357 20.9461 0.655511 20.8144 0.790503C20.6827 0.924473 20.5863 1.08708 20.532 1.26809C20.4747 1.45933 20.4717 1.63625 20.4717 1.88578Z" fill="black"/>
<path d="M36.1642 0C31.2272 0 27.2109 4.0375 27.2109 8.99949C27.2109 13.9615 31.2272 18 36.1642 18C41.1011 18 45.1174 13.9625 45.1174 8.99949C45.1174 4.03647 41.1011 0 36.1642 0ZM36.1843 13.715C33.6294 13.715 31.5509 11.6001 31.5509 9.00051C31.5509 6.40089 33.6294 4.28601 36.1843 4.28601C38.7392 4.28601 40.8167 6.40089 40.8167 9.00051C40.8167 11.6001 38.7382 13.715 36.1843 13.715Z" fill="black"/>
<path d="M50.0152 14.7665C51.1007 15.7749 53.154 16.6155 54.8054 16.6155C57.3532 16.6155 58.888 15.0549 58.888 13.0863C58.888 11.1176 56.906 10.277 54.3812 9.41284C52.2575 8.69288 49.9448 7.70805 49.9448 4.75458C49.9448 2.28176 52.0213 0.456299 54.6878 0.456299C56.7412 0.456299 58.4397 1.29693 59.4549 2.40142L58.6056 3.38522C57.5432 2.37687 56.1753 1.65691 54.7591 1.65691C52.6595 1.65691 51.2434 3.14592 51.2434 4.80264C51.2434 6.91548 53.0133 7.51578 55.4436 8.40448C57.8276 9.29318 60.1635 10.3731 60.1635 13.0392C60.1635 15.873 57.9684 17.8417 54.7833 17.8417C53.1078 17.8417 50.9841 17.2649 49.3086 15.8485L50.0162 14.7675L50.0152 14.7665Z" fill="black"/>
<path d="M73.6821 15.726C72.7855 16.8069 71.1573 17.8388 68.8677 17.8388C65.1158 17.8388 62.7559 14.8853 62.7559 11.3316C62.7559 7.77778 64.9972 4.77625 68.6084 4.77625C72.2197 4.77625 74.2479 7.46587 74.1303 11.5228H63.9841C64.1258 14.644 66.4144 16.6372 68.916 16.6372C70.7322 16.6372 71.9835 15.8927 72.88 14.9559L73.6821 15.7239V15.726ZM72.8559 10.3477C72.7855 7.97106 71.2518 5.92982 68.6084 5.92982C66.2958 5.92982 64.4786 7.68267 64.0534 10.3477H72.8549H72.8559Z" fill="black"/>
<path d="M77.1025 17.5534V5.13924H78.2353V7.85239C79.1318 5.95534 80.7369 4.92346 82.3651 4.92346C82.5541 4.92346 82.7893 4.92346 83.0024 4.94698V6.12305C82.8365 6.09953 82.6727 6.09953 82.5069 6.09953C80.3359 6.12305 79.0142 7.85239 78.2825 9.67683V17.5524H77.1025V17.5534Z" fill="black"/>
<path d="M89.7976 17.6241L84.7471 5.13831H86.0688L90.4107 16.3028L94.7054 5.13831H96.0271L91.0007 17.6241H89.7976Z" fill="black"/>
<path d="M97.9375 1.82583C97.9375 1.25007 98.4099 0.744873 98.9999 0.744873C99.5899 0.744873 100.038 1.24905 100.038 1.82583C100.038 2.40262 99.5667 2.93032 98.9999 2.93032C98.433 2.93032 97.9375 2.42614 97.9375 1.82583ZM98.3858 17.5535V5.13928H99.5889V17.5524H98.3858V17.5535Z" fill="black"/>
<path d="M113.983 15.5582C113.109 16.6862 111.386 17.8388 109.074 17.8388C105.393 17.8388 102.655 14.8853 102.655 11.3316C102.655 7.77778 105.227 4.77625 108.862 4.77625C110.513 4.77625 112.213 5.40007 113.487 6.48104C113.228 6.81749 113.062 7.12941 112.827 7.46586C111.788 6.60171 110.372 5.95334 108.863 5.95334C106.361 5.95334 103.907 8.13776 103.907 11.3316C103.907 14.5253 106.526 16.6617 109.051 16.6617C111.15 16.6617 112.472 15.5807 113.156 14.7411L113.983 15.5572V15.5582Z" fill="black"/>
<path d="M126.893 15.726C125.996 16.8069 124.368 17.8388 122.08 17.8388C118.328 17.8388 115.968 14.8853 115.968 11.3316C115.968 7.77778 118.209 4.77625 121.82 4.77625C125.432 4.77625 127.46 7.46587 127.342 11.5228H117.196C117.338 14.644 119.626 16.6372 122.128 16.6372C123.944 16.6372 125.195 15.8927 126.092 14.9559L126.894 15.7239L126.893 15.726ZM126.067 10.3477C125.996 7.97106 124.463 5.92982 121.819 5.92982C119.507 5.92982 117.689 7.68267 117.264 10.3477H126.066H126.067Z" fill="black"/>
</svg>
