<svg width="55" height="55" viewBox="0 0 55 55" fill="none" xmlns="http://www.w3.org/2000/svg">
<g clip-path="url(#clip0_1735_7016)">
<path d="M25.8812 8.92616C25.8812 8.41214 25.4957 8 25.0244 8V8.92616H25.8812Z" fill="#3E3E3E"/>
<path d="M15 20.4245V39.9062C15 42.7171 17.112 45.0001 19.7124 45.0001H32.1273C34.7277 45.0001 36.8397 42.7171 36.8397 39.9062V37.4982C40.2711 37.2574 43 34.1733 43 30.4039V26.8891C43 25.6897 42.0961 24.7126 40.9865 24.7126H36.8397V20.4245C36.8397 20.1698 36.6469 19.9614 36.4113 19.9614H15.4284C15.1928 19.9614 15 20.1698 15 20.4245ZM40.9865 25.6388C41.6248 25.6388 42.1432 26.1991 42.1432 26.8891V30.4039C42.1432 33.6639 39.8042 36.3452 36.8397 36.5813V25.6388H40.9865ZM35.9829 20.8876V39.9062C35.9829 42.2031 34.2521 44.0739 32.1273 44.0739H19.7124C17.5875 44.0739 15.8568 42.2031 15.8568 39.9062V25.611H33.2968C33.7681 25.611 34.145 25.1942 34.145 24.6848H15.8568V20.8876H35.9829Z" fill="#3E3E3E"/>
<path d="M28.7561 14.0617C29.4973 13.6588 30.2898 13.1262 30.2898 11.8389V10.9035C30.2898 10.3941 29.9085 9.97729 29.433 9.97729V10.9035V11.8389C29.433 12.4779 29.1931 12.7928 28.3706 13.2374C27.6294 13.6402 26.8369 14.1728 26.8369 15.4601V17.0902C26.8369 17.5996 27.2225 18.0117 27.6937 18.0117V17.0856V15.4601C27.6937 14.8211 27.9336 14.5062 28.7561 14.0617Z" fill="#3E3E3E"/>
<path d="M24.3479 12.0845C25.0891 11.6816 25.8816 11.149 25.8816 9.86169V8.92627H25.0248V9.86169C25.0248 10.5007 24.7849 10.8156 23.9624 11.2602C23.2212 11.6631 22.4287 12.1956 22.4287 13.483V15.3723C22.4287 15.8817 22.8143 16.2939 23.2855 16.2939V15.3677V13.483C23.2855 12.8439 23.5254 12.5337 24.3479 12.0845Z" fill="#3E3E3E"/>
</g>
<defs>
<clipPath id="clip0_1735_7016">
<rect width="28" height="37" fill="white" transform="translate(15 8)"/>
</clipPath>
</defs>
</svg>
