<svg width="55" height="55" viewBox="0 0 55 55" fill="none" xmlns="http://www.w3.org/2000/svg">
<g clip-path="url(#clip0_1735_7029)">
<path d="M39.7655 31.799C38.1557 12.5928 31.0617 11.8892 27.2628 11.866V13.9613C27.2628 14.1082 27.1876 14.2474 27.0672 14.3247L17.4607 20.6649V21.9485C17.4607 23.1701 18.3484 24.2526 19.537 24.3376C20.8309 24.4304 21.9141 23.3789 21.9217 22.0644C21.9217 21.817 22.1022 21.616 22.3429 21.616H27.2553C27.3004 21.616 28.6545 21.701 29.482 20.9124C29.7754 20.634 29.971 20.2629 30.0612 19.8222C30.144 19.4201 30.4825 19.134 30.8812 19.134H30.9639C30.9639 20.1546 30.6555 20.9665 30.0462 21.5541C28.9479 22.6057 27.2929 22.4897 27.2252 22.4897H22.7341C22.516 24.1134 21.1017 25.3428 19.4317 25.2036C17.7616 25.0644 16.6182 23.6031 16.6182 21.9407V20.4407C16.6182 20.2938 16.6934 20.1546 16.8138 20.0773L26.4278 13.7294V11.433C26.4278 11.1933 26.6158 11 26.8415 11C32.8973 11 39.2765 13.5593 40.6758 32.5954C40.2169 32.634 39.8106 32.2783 39.773 31.799H39.7655Z" fill="black"/>
<path d="M37.0421 37.567C37.0345 37.3969 36.207 20.8737 32.7391 17.2784C32.7165 17.2552 31.6709 16.0954 30.5199 15.5464C30.1588 15.3686 29.9482 14.9665 30.0384 14.5645L30.061 14.4717C31.6859 14.8505 33.2807 16.6134 33.3484 16.683C37.027 20.5026 37.847 36.8325 37.8846 37.5206L37.0496 37.5593L37.0421 37.567Z" fill="black"/>
<path d="M24.2992 33.7088L23.4717 33.5928C23.9531 29.9356 25.7661 26.8428 26.2099 26.1314L25.8112 23.9665C26.2626 23.8814 26.7064 24.183 26.7892 24.6546L27.06 26.1469C27.0826 26.2551 27.06 26.3711 26.9923 26.4639C26.9697 26.4948 24.8107 29.8273 24.2992 33.7088Z" fill="black"/>
<path d="M41.5856 43.9769H20.1609C20.018 43.9769 19.8901 43.9073 19.8149 43.7836C19.7397 43.6599 19.7246 43.513 19.7773 43.3815L20.6649 41.1547C21.0937 41.3326 21.2969 41.8351 21.1238 42.2759L20.7928 43.1109H40.9687L39.9757 40.6135C38.9526 40.4511 38.1552 39.4305 38.1552 38.2011V37.9769H31.1441V37.1187H38.569C38.8022 37.1187 38.9902 37.312 38.9902 37.5516V38.2089C38.9902 39.0748 39.5544 39.7784 40.2541 39.7784C40.4271 39.7784 40.5851 39.879 40.6528 40.0491L41.9843 43.3815C42.0369 43.513 42.0219 43.6676 41.9467 43.7836C41.8714 43.8996 41.736 43.9769 41.6006 43.9769H41.5856Z" fill="black"/>
<path d="M16.0385 44.0001C15.1282 44.0001 14.2706 43.5826 13.6914 42.8635C13.1121 42.1444 12.8789 41.2011 13.052 40.281L14.3835 33.2681C14.549 32.3944 15.3012 31.7527 16.1739 31.7527H18.2276C19.1002 31.7527 19.8299 32.3867 20.0105 33.2295H22.6434V34.0877H19.6343C19.4011 34.0877 19.213 33.8944 19.213 33.6547C19.213 33.0671 18.7692 32.6109 18.2276 32.6109H16.1739C15.7075 32.6109 15.2937 32.9589 15.211 33.4305L13.8795 40.4434C13.7516 41.1084 13.9171 41.7888 14.3383 42.3145C14.7596 42.8403 15.3765 43.1341 16.0385 43.1341C16.8434 43.1341 17.5881 42.6779 17.9718 41.9511C19.0701 39.8635 20.7326 38.7114 22.6509 38.7114V39.5697C20.6123 39.5697 19.3861 41.0852 18.709 42.3609C18.1749 43.3661 17.1518 44.0001 16.0385 44.0001Z" fill="black"/>
<path d="M29.0978 44.0001C27.9844 44.0001 26.9614 43.3738 26.4272 42.3609C25.7577 41.0929 24.5315 39.5697 22.4854 39.5697V38.7114C24.3961 38.7114 26.0586 39.8635 27.1645 41.9511C27.5481 42.6857 28.2929 43.1341 29.0978 43.1341C29.7598 43.1341 30.3767 42.8326 30.7979 42.3145C31.2192 41.7965 31.3847 41.1084 31.2568 40.4434L29.9253 33.4305C29.835 32.9589 29.4288 32.6109 28.9624 32.6109H26.9087C26.3671 32.6109 25.9232 33.0671 25.9232 33.6238C25.9232 33.8635 25.7352 34.0877 25.502 34.0877H22.4929V33.2295H25.1333C25.3214 32.379 26.0436 31.7527 26.9087 31.7527H28.9624C29.835 31.7527 30.5873 32.3867 30.7528 33.2681L32.0843 40.281C32.2573 41.2011 32.0241 42.1444 31.4449 42.8635C30.8656 43.5826 30.008 44.0001 29.0978 44.0001Z" fill="black"/>
<path d="M18.4079 35.8738H15.5869V36.732H18.4079V35.8738Z" fill="black"/>
<path d="M17.4151 34.8533H16.5801V37.7528H17.4151V34.8533Z" fill="black"/>
<path d="M27.1043 35.8738H25.833V36.732H27.1043V35.8738Z" fill="black"/>
<path d="M29.655 35.8738H28.4814V36.732H29.655V35.8738Z" fill="black"/>
</g>
<defs>
<clipPath id="clip0_1735_7029">
<rect width="29" height="33" fill="white" transform="translate(13 11)"/>
</clipPath>
</defs>
</svg>
