<svg width="55" height="55" viewBox="0 0 55 55" fill="none" xmlns="http://www.w3.org/2000/svg">
<path d="M44.1831 34.9801L44.1697 34.9714L43.4613 34.3599C43.136 34.7155 43.1716 35.2663 43.537 35.5828L43.5949 35.6305C43.5949 35.6305 43.5949 35.6349 43.5994 35.6349C44.388 36.2767 44.7846 36.9358 44.7846 37.595C44.7846 40.9081 36.0205 43.1327 27.8401 43.1327C19.6597 43.1327 10.8911 40.9081 10.8911 37.595C10.8911 36.1856 12.357 35.1448 13.805 34.4683V34.5074C13.805 34.5074 13.805 34.516 13.805 34.5204V37.4302C13.805 38.1847 14.4377 38.8005 15.213 38.8005H17.8997C18.675 38.8005 19.3077 38.1847 19.3077 37.4302V35.2576L20.9518 34.7502H27.5104C27.5104 34.7502 27.5326 34.7459 27.5415 34.7415C27.5549 34.7415 27.5638 34.7502 27.5727 34.7502H34.1313L35.9804 35.3183V37.4258C35.9804 38.1804 36.6131 38.7962 37.3883 38.7962H40.075C40.8503 38.7962 41.483 38.1804 41.483 37.4258V34.516C41.483 34.516 41.483 34.5074 41.483 34.503V33.6704C41.483 33.4363 41.581 33.3148 41.581 33.3148C41.581 33.3148 41.6033 33.2931 41.6122 33.2801C41.8751 32.9462 41.9152 32.2784 41.9196 32.1049C41.9241 32.0225 42.0756 30.0928 41.9375 28.1153C41.7949 26.0598 41.5409 25.2966 41.2914 24.7806C41.2068 24.6071 40.9929 24.2645 40.7434 23.8829C41.7058 23.5837 42.4097 22.7121 42.4097 21.6756C42.4097 21.4501 42.2315 21.2593 41.9998 21.242L39.1394 21.2246C38.3552 19.5681 36.8358 16.3851 36.4304 15.7259C36.2165 15.3747 35.8913 15.0711 35.4591 14.8239C34.9779 14.5421 34.4076 14.3686 33.8194 14.3209L33.414 14.2862C32.2912 14.1865 30.1971 14 27.6708 14C27.6618 14 27.6529 14.0043 27.644 14.0043C27.6351 14.0043 27.6262 14 27.6173 14C25.091 14 23.0013 14.1865 21.8741 14.2862L21.4686 14.3209C20.876 14.3686 20.3102 14.5421 19.829 14.8239C19.3968 15.0755 19.0715 15.379 18.8577 15.7259C18.4567 16.3851 16.9373 19.5681 16.1531 21.2246H13.4932L13.2882 21.242C13.0565 21.2593 12.8783 21.4501 12.8783 21.6756C12.8783 22.7121 13.5823 23.5837 14.5447 23.8829C14.2952 24.2645 14.0768 24.6071 13.9966 24.7806C13.7471 25.301 13.4932 26.0642 13.3506 28.1153C13.2125 30.0928 13.3639 32.0269 13.3684 32.0876C13.3729 32.2827 13.413 32.9506 13.6981 33.3062C13.6981 33.3062 13.7605 33.3799 13.7872 33.5186C10.6728 34.876 10 36.4761 10 37.595C10 41.1856 17.8329 44 27.8356 44C37.8383 44 45.6712 41.1856 45.6712 37.595C45.6712 36.6713 45.1677 35.791 44.1786 34.9801H44.1831ZM35.2051 26.3244H20.0785C19.7176 26.3244 19.3656 26.1769 19.1161 25.9211L18.5324 25.3183C18.2562 25.0364 17.9042 24.8283 17.521 24.7242L15.4269 24.1561C15.7566 23.6574 16.1487 23.085 16.4517 22.6513C16.4561 22.6427 16.4561 22.634 16.4606 22.6253C16.4695 22.6123 16.4784 22.5993 16.4873 22.5863C16.4873 22.5776 16.563 22.4258 16.6833 22.1743L17.0621 22.2264C17.0977 22.2264 20.6087 22.5256 27.5594 22.5256C27.5683 22.5256 27.5772 22.5256 27.5861 22.5256C27.595 22.5256 27.6039 22.5256 27.6128 22.5256C34.5591 22.5256 38.0745 22.2307 38.1324 22.222L38.5958 22.1613C38.7161 22.4215 38.7918 22.5776 38.7963 22.5863C38.8052 22.5993 38.8141 22.6123 38.823 22.6253C38.8275 22.634 38.8275 22.6427 38.8319 22.6513C39.1349 23.085 39.527 23.6574 39.8567 24.1561L37.7626 24.7242C37.375 24.8283 37.0274 25.0321 36.7512 25.3183L36.1675 25.9211C35.918 26.1769 35.566 26.3244 35.2051 26.3244ZM41.4518 22.0919C41.2869 22.6297 40.8102 23.0373 40.2265 23.1197C39.9325 22.6904 39.6785 22.3218 39.5894 22.196C39.5805 22.1743 39.5626 22.1353 39.5404 22.0963H41.4473L41.4518 22.0919ZM19.624 16.1726C19.7621 15.9471 19.9849 15.7433 20.2834 15.5698C20.6532 15.3573 21.0854 15.2229 21.5444 15.1839L21.9543 15.1492C23.0637 15.0494 25.1266 14.8673 27.6128 14.8673C27.6217 14.8673 27.6307 14.863 27.6396 14.863C27.6485 14.863 27.6574 14.8673 27.6663 14.8673C30.1525 14.8673 32.2154 15.0494 33.3249 15.1492L33.7348 15.1839C34.1892 15.2229 34.6259 15.353 34.9957 15.5698C35.2987 15.7433 35.5215 15.9471 35.6551 16.1726C36.016 16.7624 37.3972 19.6461 38.1992 21.3417L38.0255 21.3634C37.9898 21.3634 34.5011 21.6583 27.5816 21.6583C20.6577 21.6583 17.169 21.3634 17.1601 21.3634L17.071 21.3504C17.873 19.6592 19.2631 16.7624 19.624 16.1683V16.1726ZM13.8318 22.0963H15.7388C15.7209 22.1396 15.7031 22.1743 15.6898 22.196C15.6006 22.3218 15.3467 22.6904 15.0526 23.1197C14.4689 23.0373 13.9922 22.6297 13.8273 22.0919L13.8318 22.0963ZM14.2417 28.1761C14.3754 26.2593 14.6026 25.5698 14.8031 25.1492C14.8254 25.0971 14.8744 25.0191 14.9323 24.9237L17.2804 25.5611C17.5121 25.6219 17.7215 25.7476 17.8863 25.9167L18.47 26.5195C18.6393 26.6973 18.8443 26.8317 19.0626 26.9402C18.6705 27.2047 18.3274 27.5473 18.0646 27.9592L16.367 30.6305L15.8502 31.4371C16.269 31.693 16.817 31.5672 17.0799 31.1596L17.1244 31.0902L18.822 28.4146C19.3077 27.647 20.1498 27.1917 21.0765 27.1917H34.2338C35.1606 27.1917 36.0027 27.6513 36.4883 28.4146L38.1859 31.0902L38.2304 31.1596C38.4889 31.5629 39.0369 31.6886 39.4513 31.4328L38.9478 30.6522C38.9478 30.6522 38.9478 30.6435 38.9433 30.6392L37.2413 27.9592C36.974 27.5386 36.6264 27.196 36.2299 26.9271C36.4393 26.8187 36.6398 26.6843 36.8047 26.5152L37.3883 25.9124C37.5532 25.7433 37.7626 25.6175 37.9943 25.5568L40.3424 24.9193C40.4003 25.0147 40.4448 25.0928 40.4716 25.1448C40.6765 25.5655 40.8993 26.255 41.033 28.1717C41.1667 30.0841 41.0152 32.0182 41.0152 32.0572C41.0062 32.3261 40.9483 32.66 40.8949 32.7467C40.8102 32.8465 40.583 33.1631 40.583 33.6661V34.6505C40.583 34.6505 40.583 34.6591 40.583 34.6635V37.4215C40.583 37.699 40.3513 37.9245 40.0661 37.9245H37.3794C37.0943 37.9245 36.8626 37.699 36.8626 37.4215V35.0321C36.8626 34.8239 36.6621 34.6418 36.5373 34.5898C36.4126 34.5377 36.4037 34.5334 36.3368 34.5117L34.3229 33.8916C34.2784 33.8786 34.2338 33.8699 34.1892 33.8699H27.5638C27.5638 33.8699 27.5415 33.8742 27.5326 33.8742C27.5193 33.8742 27.5104 33.8699 27.5014 33.8699H20.876C20.8315 33.8699 20.7869 33.8786 20.7424 33.8916L18.7284 34.5117C18.5279 34.5724 18.4076 34.7546 18.4076 34.9497V37.4172C18.4076 37.6947 18.176 37.9202 17.8908 37.9202H15.2041C14.9189 37.9202 14.6873 37.6947 14.6873 37.4172V34.6591C14.6873 34.6591 14.6873 34.6505 14.6873 34.6461V33.6618C14.6873 33.1587 14.46 32.8422 14.3754 32.7424C14.3219 32.6557 14.2595 32.3218 14.2506 32.0312C14.2506 32.0139 14.0991 30.0798 14.2328 28.1674L14.2417 28.1761Z" fill="black"/>
</svg>
