<svg width="55" height="55" viewBox="0 0 55 55" fill="none" xmlns="http://www.w3.org/2000/svg">
<path d="M39.9498 21.7207L42.069 22.7431C42.288 22.8507 42.5461 22.7662 42.6634 22.5586L44.1648 19.9064C44.4933 19.3298 44.3056 18.5995 43.7425 18.2459L38.683 15.0324L38.2138 12.3648C38.1825 12.188 38.0495 12.0496 37.8775 12.0112C37.6976 11.9728 37.5178 12.0343 37.4083 12.1803L30.9568 20.7136H18.2179C18.1006 20.7136 17.9833 20.7597 17.8973 20.8443L11.0235 27.6017L11 27.6248L11.0235 27.6478C11.1877 27.8093 11.4066 27.9015 11.6412 27.9015C11.8758 27.9015 12.0948 27.8093 12.259 27.6478L17.7722 22.228V38.5412C15.5122 36.7192 13.8074 34.336 12.8377 31.6377V31.6146L12.7986 31.6223C12.5796 31.6992 12.3998 31.8606 12.3059 32.0682C12.2121 32.2835 12.2043 32.5141 12.2981 32.7293C13.4477 35.4738 15.3401 37.8647 17.7643 39.6636V39.6866H17.7956C20.7438 41.8545 24.2393 43 27.9069 43C31.2617 43 34.5149 42.0237 37.3145 40.1786C40.0984 38.3413 42.2489 35.7659 43.5236 32.7293C43.6096 32.5141 43.6096 32.2758 43.5158 32.0682C43.4219 31.8606 43.2499 31.6992 43.0231 31.6223H42.9918L42.984 31.6377C41.7797 34.9741 39.4337 37.8416 36.3682 39.7251V26.9406L39.942 21.7207H39.9498ZM35.4846 40.2325C33.162 41.4625 30.5501 42.1159 27.9148 42.1159C24.5912 42.1159 21.3928 41.1165 18.6715 39.2177V30.0925C19.2814 30.3308 20.1573 30.5614 21.3459 30.7997C24.0282 31.3302 26.8591 31.5993 29.7681 31.5993H33.0134V31.5685C33.0134 31.0996 32.6224 30.7152 32.1454 30.7152H29.7759C26.9294 30.7152 24.1611 30.4538 21.5336 29.931C19.7819 29.5851 19.0234 29.3083 18.6871 29.1315V21.59H31.1992C31.3399 21.59 31.4729 21.5208 31.5589 21.4132L37.5021 13.5333L37.8228 15.3707C37.8462 15.4937 37.9166 15.6013 38.0261 15.6705L43.2499 18.9916C43.4141 19.0992 43.4688 19.3068 43.375 19.4759L42.0769 21.7591L39.9889 20.752C39.7856 20.6521 39.5432 20.7213 39.4181 20.9058L35.5471 26.5639C35.5002 26.6407 35.4689 26.7253 35.4689 26.8099V40.2325H35.4767H35.4846Z" fill="#091018"/>
</svg>
