<svg fill="none" height="48" viewBox="0 0 112 48" width="112" xmlns="http://www.w3.org/2000/svg"><g fill="#000"><path d="m2.51138 5.95251v-4.56715h-1.49966v-.995223h4.14452v.995223h-1.49966v4.56715z"/><path d="m13.3876 5.95251v-2.46762h-2.6857v2.46762h-1.13159v-5.562373h1.13159v2.099523h2.6857v-2.099523h1.1316v5.562373z"/><path d="m19.4414 5.95251v-5.562373h3.5856v.995223h-2.454v1.1861h2.0041v.99523h-2.0041v1.40423h2.454v.98159z"/><path d="m37.1127 5.95244-.4363-1.15883h-2.2904l-.4226 1.15883h-1.2134l2.2222-5.589647h1.1043l2.2222 5.589647zm-1.5679-4.28085-.7771 2.12679h1.5542z"/><path d="m42.5938 5.95251v-5.562373h1.1315v4.580783h2.2904v.98159z"/><path d="m50.4883 5.95251v-5.562373h1.1315v4.580783h2.2904v.98159z"/><path d="m57.8633 3.8531v-1.00886h2.6721v1.00886z"/><path d="m69.1778 5.95251-2.9857-3.50375v3.50375h-1.1179v-5.562373h.818l3.0539 3.626453v-3.626453h1.1179v5.562373z"/><path d="m74.9883 5.95251v-5.562373h3.5855v.995223h-2.454v1.1861h2.0041v.99523h-2.0041v1.40423h2.454v.98159z"/><path d="m87.9479 5.95251-1.2543-3.69462-1.2542 3.69462h-1.0498l-1.7451-5.562373h1.1725l1.1725 4.103613 1.2951-4.103613h.8725l1.3088 4.130883 1.1043-4.130883h1.1725l-1.7451 5.562373z"/><path d="m24.0955 18.3481c-2.3544-.9719-5.0543-1.4262-8.4877-1.4262-1.8756 0-5.4047.1395-7.97807 1.0709-4.88877 1.8383-7.166839 6.1381-7.166839 13.5272 0 7.3892 2.216409 11.835 6.972129 13.6474 2.08661.7999 4.88878 1.1877 8.56388 1.1877 6.6152 0 10.1848-1.277 12.5326-2.124l.2677-.0957-.6879-2.1693-.2937.1152c-2.3949.9329-5.64 1.8886-11.5072 1.8886-4.8823 0-6.94616-.662-8.07059-1.1845-3.42684-1.4392-4.98125-4.6242-5.04129-10.3194h25.50178l.1298-.503c.4592-1.5788.6879-3.2143.6782-4.8596 0-4.6567-1.5674-7.2074-5.4112-8.7585zm-1.0888 1.9844c2.4939 1.0709 4.0386 2.5442 4.0386 6.5129-.013 1.1829-.1234 2.3625-.331 3.5259h-23.55634c.06328-5.507 1.87243-8.9598 5.37878-10.253 1.73616-.6344 4.18136-.9557 7.27716-.9557 3.1494-.0097 5.2393.331 7.2009 1.1748l-.0065-.0033zm36.3826 22.3459c-2.6983.8356-5.5069 1.2574-8.3318 1.2542-9.3605 0-14.517-4.4085-14.517-12.4126 0-5.1792 1.8854-8.8478 5.4501-10.6099 2.0866-1.0644 4.9813-1.6047 8.5996-1.6047 2.9174-.0081 5.8201.4381 8.5996 1.3224l.6944-2.2586c-3.0034-.9508-6.1349-1.4376-9.2843-1.4457-4.1245 0-7.5676.6312-9.9527 1.8254-4.4816 2.2391-6.7515 6.5486-6.7515 12.8133 0 9.4027 6.2582 14.7945 17.1732 14.7945 3.0487.0178 6.0797-.4413 8.9873-1.3597l-.6685-2.3186zm27.4099-13.6247c-1.8351-.5224-4.4458-.7901-7.7591-.7901-3.972.0259-7.9359.3569-11.8576.993.1217-4.832 1.4294-7.3892 4.4555-8.7813 1.8497-.821 4.1943-1.2202 7.1701-1.2202 5.0608 0 8.1761 1.0482 9.281 1.4976l.2775.112.8372-2.1467-.2677-.1119c-.675-.2677-4.4085-1.6842-10.2367-1.6842-3.3701 0-6.1089.4656-8.3821 1.4262-2.8947 1.2575-5.8705 3.7643-5.8705 12.8636s2.8054 12.6414 5.15 13.7496c2.4582 1.251 6.1982 1.3986 8.7911 1.3986 3.5128 0 5.8152-.2839 7.7039-.9524 3.4398-1.2672 4.9082-3.9688 4.9082-9.0863 0-4.2268-1.2542-6.3994-4.1878-7.2642zm-8.3708 14.9568c-2.6464 0-5.1662-.0828-7.2366-1.1017-2.7389-1.3468-3.9688-4.9083-4.0061-11.5332 3.8698-.6376 7.7867-.9459 11.7084-.9232 3.3068 0 5.2068.1785 6.5827.6117 1.9844.5825 2.9774 1.5706 2.9774 5.3674 0 4.8028-1.8951 6.1219-3.5485 6.7369-1.5479.5695-2.9271.8405-6.4757.8405z"/></g></svg>