<svg width="39" height="12" viewBox="0 0 39 12" fill="none" xmlns="http://www.w3.org/2000/svg">
<path d="M9.00885 1.29572C8.10797 0.926852 7.07942 0.749512 5.77422 0.749512C5.05774 0.749512 3.71705 0.799167 2.73813 1.16094C0.865419 1.86321 0 3.50183 0 6.32509C0 9.18378 0.844136 10.8366 2.6672 11.5318C3.46168 11.8368 4.53281 11.9858 5.92316 11.9858C8.44142 11.9858 9.79626 11.5034 10.6901 11.1771L10.8249 11.1275L10.5411 10.2337L10.3921 10.2904C9.48415 10.6451 8.26406 11.0069 6.04373 11.0069C4.19942 11.0069 3.42621 10.7515 3.00059 10.56C1.72374 10.0208 1.14207 8.83621 1.1137 6.72232H10.7681L10.8249 6.5024C10.9525 6.01297 11.0802 5.50932 11.0802 4.65099C11.0802 2.8705 10.4772 1.89867 9.00885 1.29572ZM10.0729 4.55168C10.0729 4.92765 10.0304 5.40292 9.95235 5.84982H1.09242C1.12079 3.79976 1.80178 2.51582 3.107 2.03345C3.75961 1.79227 4.68178 1.67168 5.84515 1.67168C7.03687 1.67168 7.82422 1.79937 8.56199 2.11858C9.49833 2.51582 10.0729 3.06203 10.0729 4.55168Z" fill="black"/>
<path d="M25.7695 0.742432V1.80647H32.6574L26.3086 12H27.5713L33.991 1.62913L33.9981 0.742432L25.7695 0.742432Z" fill="black"/>
<path d="M23.6563 10.2052L23.5358 10.2549C22.9967 10.489 21.5283 11.0423 19.5208 11.0423C17.7757 11.0423 16.4067 10.6451 15.4703 9.87185C14.4985 9.07026 14.009 7.87853 14.009 6.33215C14.009 4.36722 14.7255 2.97688 16.0803 2.30298C16.8749 1.89865 17.9744 1.69294 19.3434 1.69294C21.3864 1.69294 22.7909 2.23914 23.3159 2.44486L23.4648 2.50161L23.7912 1.62909L23.6776 1.58653C23.0818 1.35953 21.4999 0.763672 19.3505 0.763672C17.7757 0.763672 16.4705 1.00485 15.5555 1.45885C13.8459 2.31008 12.9805 3.95579 12.9805 6.34634C12.9805 9.92859 15.3639 11.9857 19.5279 11.9857C21.812 11.9857 23.323 11.3544 23.8904 11.1132L24.0039 11.0636L23.6563 10.2052Z" fill="black"/>
</svg>
