<svg width="112" height="48" viewBox="0 0 112 48" fill="none" xmlns="http://www.w3.org/2000/svg">
<path d="M2.51138 5.95227V1.38512H1.01172V0.389893H5.15624V1.38512H3.65658V5.95227H2.51138Z" fill="black"/>
<path d="M13.3876 5.95227V3.48465H10.7019V5.95227H9.57031V0.389893H10.7019V2.48942H13.3876V0.389893H14.5192V5.95227H13.3876Z" fill="black"/>
<path d="M19.4414 5.95227V0.389893H23.027V1.38512H20.573V2.57122H22.5771V3.56645H20.573V4.97068H23.027V5.95227H19.4414Z" fill="black"/>
<path d="M37.1127 5.95244L36.6764 4.79361H34.386L33.9634 5.95244H32.75L34.9722 0.362793H36.0765L38.2987 5.95244H37.1127ZM35.5448 1.67159L34.7677 3.79838H36.3219L35.5448 1.67159Z" fill="black"/>
<path d="M42.5938 5.95227V0.389893H43.7253V4.97068H46.0157V5.95227H42.5938Z" fill="black"/>
<path d="M50.4883 5.95227V0.389893H51.6198V4.97068H53.9102V5.95227H50.4883Z" fill="black"/>
<path d="M57.8633 3.8531V2.84424H60.5354V3.8531H57.8633Z" fill="black"/>
<path d="M69.1778 5.95227L66.1921 2.44852V5.95227H65.0742V0.389893H65.8922L68.9461 4.01635V0.389893H70.064V5.95227H69.1778Z" fill="black"/>
<path d="M74.9883 5.95227V0.389893H78.5738V1.38512H76.1198V2.57122H78.1239V3.56645H76.1198V4.97068H78.5738V5.95227H74.9883Z" fill="black"/>
<path d="M87.9479 5.95227L86.6936 2.25765L85.4394 5.95227H84.3896L82.6445 0.389893H83.817L84.9895 4.49351L86.2846 0.389893H87.1571L88.4659 4.52078L89.5702 0.389893H90.7427L88.9976 5.95227H87.9479Z" fill="black"/>
<path d="M24.5449 18.165C22.199 17.1997 19.2527 16.7129 15.7854 16.7129C12.242 16.7129 9.50202 17.0838 7.41151 17.8422C2.49305 19.6503 0 24.3544 0 31.8519C0 39.578 2.23428 43.8731 7.24068 45.7823C9.34303 46.5886 12.3181 46.9976 16.1 46.9976C18.0383 47.0192 19.9749 46.89 21.8912 46.6118C23.8802 46.3072 25.0506 46.0803 25.7796 45.8518C26.8232 45.5471 27.7923 45.2259 28.7462 44.8716L29.6697 44.5305L28.7665 42.2322L27.843 42.5849C24.4553 43.8913 20.5313 44.5503 16.1761 44.5503C12.6446 44.5503 9.88596 44.1496 7.97134 43.3565C4.40767 41.9259 2.7197 38.6474 2.55902 32.7775H29.624L29.7627 31.9794C30.0706 30.37 30.2465 28.7374 30.287 27.1014C30.287 22.3758 28.6245 19.7877 24.5517 18.165M2.55902 30.3236C2.74845 24.7949 4.6157 21.4584 8.24873 20.1421C10.0517 19.493 12.6344 19.1651 15.9021 19.1651C19.1343 19.1651 21.6358 19.5625 23.547 20.3921C26.7048 21.7052 27.7754 23.409 27.7754 27.1395C27.7822 28.2042 27.7044 29.2689 27.5454 30.3236H2.55902Z" fill="black"/>
<path d="M55.7121 31.7239L38.7559 29.2381C37.6751 29.0725 36.2385 28.4067 36.2385 24.5463C36.2385 22.1731 37.2683 20.7174 39.4912 19.9672C41.0572 19.4355 43.4792 19.1755 46.8919 19.1755C50.0595 19.1755 53.7922 19.7452 57.9827 20.8681L58.9121 21.1165L59.6457 18.7863L58.6704 18.5214C54.2773 17.3273 50.3284 16.7129 46.9362 16.7129C43.1592 16.7129 40.4189 17.0342 38.5738 17.69C35.3909 18.7748 33.728 21.1165 33.728 24.4718C33.728 29.8442 36.3066 31.3513 38.4683 31.6709L55.4381 34.1568C57.0925 34.4317 58.0491 35.1902 58.0491 38.2242C58.0491 40.71 57.4568 41.818 56.9581 42.2916L56.9274 42.3231C56.2517 43.0435 55.7802 43.2836 54.8015 43.5883C52.6943 44.221 50.0748 44.5423 47.0111 44.5423C45.3907 44.539 43.772 44.4396 42.1635 44.2442C41.0027 44.1233 39.8504 43.9394 38.7117 43.6927L34.4973 42.5963L33.4727 44.9199L38.07 46.0891C39.304 46.3491 40.5516 46.5478 41.8078 46.6836C43.4946 46.8906 45.1932 46.9966 46.8919 46.9999C50.2944 46.9999 53.1998 46.6488 55.5334 45.9599C57.8653 45.271 60.5716 43.4211 60.5716 38.3683C60.5716 34.2594 59.0738 32.2042 55.7121 31.7057" fill="black"/>
<path d="M88.1458 29.1034C86.2764 28.5619 83.6228 28.2895 80.2604 28.2895C75.7766 28.2895 71.9002 28.7633 68.3807 29.2949C68.5263 24.5071 69.831 21.9663 72.8153 20.5828C74.6733 19.7507 77.0306 19.3462 80.0247 19.3462C85.1272 19.3462 88.2637 20.4094 89.3736 20.8667L89.7664 21.0285L90.6995 18.6115L90.3198 18.4563C89.6208 18.1657 85.8229 16.7129 79.9051 16.7129C76.4789 16.7129 73.6895 17.1933 71.3665 18.1823C68.3937 19.4783 65.3555 22.062 65.3555 31.4197C65.3555 41.0267 68.2333 44.4162 70.6348 45.5603C73.1476 46.8514 76.9438 46.9999 79.5712 46.9999C83.1464 46.9999 85.4824 46.7077 87.4108 46.0176C90.9467 44.7067 92.4544 41.8984 92.4544 36.6318C92.4544 33.5478 91.942 30.2393 88.1294 29.1067M79.6318 44.3633C76.9815 44.3633 74.4327 44.2775 72.3602 43.2522C69.651 41.9001 68.415 38.334 68.3741 31.6855C70.7592 31.248 75.1186 30.761 80.0999 30.761C83.4263 30.761 85.3433 30.9393 86.7282 31.3801C88.6746 31.9563 89.6633 32.9452 89.6633 36.7441C89.6633 39.4484 89.2426 42.3475 86.1487 43.5032C84.5853 44.0777 83.2152 44.3518 79.6252 44.3518" fill="black"/>
</svg>
