<svg width="39" height="12" viewBox="0 0 39 12" fill="none" xmlns="http://www.w3.org/2000/svg">
<path fill-rule="evenodd" clip-rule="evenodd" d="M22.469 8.86709C22.469 10.7019 21.4757 11.3786 20.6426 11.6232C19.7968 11.8731 18.7423 12 17.5089 12C16.9132 12 16.3098 11.9627 15.6644 11.886C15.0632 11.8129 14.6204 11.7423 14.3098 11.6702L12.6424 11.2458L13.0141 10.4025L14.5421 10.8005C14.8114 10.866 15.2344 10.9336 15.7939 11.0001C16.4102 11.0732 16.9852 11.1088 17.5517 11.1088C18.6627 11.1088 19.6133 10.9923 20.3766 10.7624C20.7313 10.6513 20.9022 10.565 21.1475 10.3034L21.1586 10.2919C21.3392 10.1161 21.5543 9.7164 21.5543 8.81137C21.5543 7.70524 21.2071 7.43074 20.6074 7.33042L14.4536 6.42642C13.6693 6.31077 12.7345 5.76336 12.7345 3.81259C12.7345 2.59754 13.341 1.7473 14.4884 1.35388C15.1597 1.11621 16.1534 1 17.5231 1C18.7535 1 20.1854 1.21981 21.7789 1.65325L22.1322 1.74936L21.8655 2.59483L21.531 2.50507C20.0109 2.09763 18.6578 1.8911 17.5089 1.8911C16.271 1.8911 15.3929 1.98487 14.8248 2.17794C14.0229 2.45019 13.6493 2.97844 13.6493 3.84046C13.6493 5.2411 14.1706 5.48325 14.5627 5.54346L20.7072 6.4482C21.9258 6.62958 22.469 7.37567 22.469 8.86709ZM10.0487 5.94305H0.934966C1.00407 3.93526 1.68507 2.72413 3.01116 2.24553C3.66884 2.0103 4.60841 1.8911 5.80368 1.8911C6.98513 1.8911 7.89639 2.03611 8.59418 2.33678C9.74616 2.81389 10.1349 3.43226 10.1349 4.78737C10.1349 5.19183 10.1066 5.57253 10.0487 5.94305ZM8.95651 1.52778C8.10198 1.17764 7.02669 1 5.76078 1C4.46818 1 3.4689 1.13482 2.70536 1.41194C0.910298 2.06565 0 3.77753 0 6.5C0 9.30511 0.815371 10.8652 2.64269 11.5582C3.41016 11.8513 4.49765 12 5.87509 12C6.67482 12 7.36647 11.9531 7.98863 11.8567C8.71531 11.7464 9.14166 11.6637 9.4085 11.5814C9.78887 11.4704 10.1428 11.354 10.4905 11.2254L10.8262 11.1013L10.4965 10.2668L10.1615 10.3952C8.92494 10.8687 7.49249 11.1088 5.90369 11.1088C4.61426 11.1088 3.60789 10.9635 2.90875 10.6754C1.60876 10.1562 0.992651 8.96526 0.933814 6.83406H10.8084L10.859 6.54422C10.9856 5.8174 11.0498 5.22165 11.0498 4.77334C11.0498 3.05772 10.4431 2.11717 8.95651 1.52778ZM32 1.16474L31.9947 1.98973L25.8696 11.6232H24.6645L30.7194 2.1555H24.1522V1.16474H32Z" fill="black"/>
</svg>
