<svg width="112" height="48" viewBox="0 0 112 48" fill="none" xmlns="http://www.w3.org/2000/svg">
<g clip-path="url(#clip0_1977_5914)">
<path d="M2.51138 5.95227V1.38512H1.01172V0.389893H5.15624V1.38512H3.65658V5.95227H2.51138Z" fill="black"/>
<path d="M13.3876 5.95227V3.48465H10.7019V5.95227H9.57031V0.389893H10.7019V2.48942H13.3876V0.389893H14.5192V5.95227H13.3876Z" fill="black"/>
<path d="M19.4414 5.95227V0.389893H23.027V1.38512H20.573V2.57122H22.5771V3.56645H20.573V4.97068H23.027V5.95227H19.4414Z" fill="black"/>
<path d="M37.1127 5.95244L36.6764 4.79361H34.386L33.9634 5.95244H32.75L34.9722 0.362793H36.0765L38.2987 5.95244H37.1127ZM35.5448 1.67159L34.7677 3.79838H36.3219L35.5448 1.67159Z" fill="black"/>
<path d="M42.5938 5.95227V0.389893H43.7253V4.97068H46.0157V5.95227H42.5938Z" fill="black"/>
<path d="M50.4883 5.95227V0.389893H51.6198V4.97068H53.9102V5.95227H50.4883Z" fill="black"/>
<path d="M57.8633 3.8531V2.84424H60.5354V3.8531H57.8633Z" fill="black"/>
<path d="M69.1778 5.95227L66.1921 2.44852V5.95227H65.0742V0.389893H65.8922L68.9461 4.01635V0.389893H70.064V5.95227H69.1778Z" fill="black"/>
<path d="M74.9883 5.95227V0.389893H78.5738V1.38512H76.1198V2.57122H78.1239V3.56645H76.1198V4.97068H78.5738V5.95227H74.9883Z" fill="black"/>
<path d="M87.9479 5.95227L86.6936 2.25765L85.4394 5.95227H84.3896L82.6445 0.389893H83.817L84.9895 4.49351L86.2846 0.389893H87.1571L88.4659 4.52078L89.5702 0.389893H90.7427L88.9976 5.95227H87.9479Z" fill="black"/>
<path d="M24.3339 17.8725C22.0148 16.8981 19.0907 16.394 15.6457 16.394C12.1334 16.394 9.41092 16.7637 7.34388 17.5365C2.47037 19.3678 0 24.1392 0 31.7332C0 39.5624 2.21829 43.897 7.17583 45.8459C9.25967 46.6692 12.2174 47.0724 15.9649 47.0724C17.8807 47.0892 19.8133 46.9548 21.7123 46.6692C23.6785 46.3667 24.8381 46.1315 25.5775 45.8963C26.6026 45.5939 27.5773 45.2579 28.5184 44.9051L29.4259 44.5691L28.5352 42.2505L27.6278 42.6034C24.2667 43.9306 20.3679 44.6027 16.0658 44.6027C12.5703 44.6027 9.83105 44.1994 7.93206 43.393C4.40297 41.9481 2.72245 38.6216 2.5712 32.6741H29.3923L29.5267 31.8676C29.8629 29.8347 30.0477 28.1714 30.0477 26.9282C30.0141 22.1399 28.3672 19.519 24.3339 17.8725ZM2.53759 30.1875C2.72245 24.5929 4.57102 21.2159 8.18414 19.8718C9.96549 19.2166 12.5199 18.8806 15.7801 18.8806C18.9899 18.8806 21.4602 19.2838 23.3592 20.1238C26.485 21.4511 27.5437 23.1816 27.5437 26.9618C27.5437 28.037 27.4765 29.1123 27.3085 30.1875H2.53759Z" fill="black"/>
<path d="M56.2472 31.582L39.5596 29.0619C38.5009 28.8939 37.0725 28.2218 37.0725 24.3072C37.0725 21.9047 38.0808 20.4262 40.2655 19.6702C41.8115 19.1326 44.1979 18.8638 47.5589 18.8638C50.6847 18.8638 54.3482 19.435 58.4823 20.5775L59.3898 20.8295L60.1124 18.4773L59.1545 18.2085C54.8188 16.9989 50.9368 16.394 47.5925 16.394C43.8786 16.394 41.1729 16.7133 39.3412 17.3853C36.2322 18.4773 34.5685 20.8463 34.5685 24.24C34.5685 29.6835 37.1061 31.2124 39.2403 31.5316L55.9615 34.0517C57.5916 34.3373 58.5327 35.0934 58.5327 38.1847C58.5327 40.7049 57.9445 41.8305 57.4572 42.3177L57.4236 42.3513C56.7514 43.0738 56.2976 43.3258 55.3229 43.6282C53.2559 44.2666 50.6679 44.6027 47.6429 44.6027C46.0464 44.6027 44.45 44.5018 42.8703 44.3002C41.7275 44.1826 40.5848 43.9978 39.4756 43.7458L35.3247 42.637L34.3164 44.9891L38.8538 46.1651C40.0638 46.4339 41.2906 46.6356 42.5342 46.77C44.1979 46.9716 45.8784 47.0892 47.5421 47.0892C50.8863 47.0892 53.76 46.7364 56.0623 46.0307C58.3311 45.3419 61.0367 43.4602 61.0367 38.3527C61.0367 34.1693 59.5746 32.1028 56.2472 31.582Z" fill="black"/>
<path d="M90.3095 31.1116C91.5531 29.9691 92.1749 27.8858 92.1749 24.7777C92.1749 21.6191 91.6035 18.5278 87.4526 17.2845C85.52 16.6797 82.8648 16.394 79.3189 16.394C75.773 16.394 73.1178 16.6965 71.1852 17.2845C67.8409 18.3429 66.4629 20.5439 66.4629 24.8449C66.4629 27.9698 67.0847 30.0363 68.3451 31.1284C66.6478 32.3716 65.6562 34.8918 65.6562 38.0839C65.6562 42.2505 67.3368 44.9555 70.6642 46.1147C72.5464 46.7364 75.4537 47.0556 79.3189 47.0556C83.1841 47.0556 86.1082 46.7364 87.9904 46.1147C91.301 44.9723 92.9983 42.2673 92.9983 38.1007C92.9983 34.9758 91.9396 32.2876 90.3095 31.1116ZM88.2256 29.5659C87.8559 29.7339 87.0829 29.9355 85.3856 29.9355H72.9497C71.5045 29.9355 70.7314 29.7003 70.3281 29.4987C69.4206 29.0283 68.9501 27.4826 68.9501 24.9961C68.9501 21.4847 69.8576 20.3926 71.2356 19.8214C72.6976 19.183 75.4201 18.847 79.3189 18.847C83.2177 18.847 85.9401 19.1662 87.419 19.8214C88.797 20.3758 89.6877 21.4511 89.6877 24.8617C89.6877 26.7098 89.4356 28.9947 88.2256 29.5659ZM70.3281 32.8253C70.8154 32.5733 71.6389 32.4388 72.748 32.4388H85.9065C86.8812 32.4388 87.7047 32.5733 88.2761 32.8253C89.7213 33.4637 90.4271 35.2278 90.4271 38.1847C90.4271 40.5873 89.7549 42.2001 88.3769 43.1242C87.587 43.645 86.5787 44.0146 85.3184 44.2666C83.9739 44.485 81.9069 44.6027 79.1508 44.6027C74.1429 44.6027 71.7902 44.2162 70.1769 43.0906C68.9501 42.2673 68.1938 41.1753 68.1938 38.2687C68.1938 35.3622 68.9165 33.5141 70.3281 32.8253Z" fill="black"/>
</g>
<defs>
<clipPath id="clip0_1977_5914">
<rect width="112" height="48" fill="black"/>
</clipPath>
</defs>
</svg>
