<svg width="39" height="12" viewBox="0 0 39 12" fill="none" xmlns="http://www.w3.org/2000/svg">
<g clip-path="url(#clip0_1977_5657)">
<path d="M9.10094 1.26552C8.19211 0.889447 7.15792 0.720215 5.83538 0.720215C5.11459 0.720215 3.76072 0.776625 2.7704 1.13389C0.883769 1.84216 0 3.50315 0 6.34876C0 9.23824 0.852432 10.9055 2.68892 11.6075C3.49121 11.9146 4.56928 12.0651 5.97955 12.0651C8.52428 12.0651 9.88445 11.5762 10.787 11.2502L10.9249 11.2001L10.6366 10.2975L10.4862 10.3539C9.57104 10.7112 8.33628 11.0747 6.09863 11.0747C4.23707 11.0747 3.4536 10.8177 3.02738 10.6235C1.7362 10.0844 1.14702 8.88725 1.12195 6.7499H10.8685L10.9249 6.53052C11.0502 6.03536 11.1881 5.52767 11.1881 4.66271C11.1944 2.85129 10.5864 1.8735 9.10094 1.26552ZM10.0537 5.86613H1.11568C1.14702 3.79774 1.83022 2.50029 3.14647 2.01139C3.8046 1.77322 4.73851 1.64786 5.91059 1.64786C7.11405 1.64786 7.91005 1.77948 8.65593 2.09915C9.5961 2.50029 10.1728 3.05186 10.1728 4.55616C10.179 4.93221 10.1289 5.41484 10.0537 5.86613Z" fill="black"/>
<path d="M12.8867 1.70403H17.105V12.0711H18.2207V1.70403H22.4389V0.682373H12.8867V1.70403Z" fill="black"/>
<path d="M33.3449 5.81598C33.0503 5.71571 31.9785 5.39603 29.5841 5.39603C28.1927 5.39603 26.4565 5.5966 25.93 5.65303V1.70427H33.9967V0.720215H24.8958V6.73738L25.0462 6.71228C25.0713 6.70604 27.497 6.31742 29.44 6.31742C31.2326 6.31742 32.2856 6.44903 33.0377 6.73738C33.6708 6.99434 34.003 7.54594 34.003 8.58638C34.003 9.90263 33.5266 10.5044 32.505 10.7551H32.4987C31.7842 10.9556 30.8628 11.0559 29.5027 11.0559C28.0297 11.0559 26.6445 10.8742 25.1026 10.4918L24.9773 10.4605L24.7266 11.4007L24.8519 11.432C25.8548 11.7078 27.6348 12.0337 29.5779 12.0337C31.4959 12.0337 32.0474 11.8896 32.7933 11.7203C34.6173 11.3067 34.9996 9.85876 34.9996 8.61147C34.9996 7.02568 34.4417 6.16701 33.3449 5.81598Z" fill="black"/>
</g>
<defs>
<clipPath id="clip0_1977_5657">
<rect width="39" height="12" fill="black"/>
</clipPath>
</defs>
</svg>
