<svg width="39" height="12" viewBox="0 0 39 12" fill="none" xmlns="http://www.w3.org/2000/svg">
<g clip-path="url(#clip0_2001_3606)">
<path d="M8.56587 1.7778C7.72959 1.43209 6.76827 1.26709 5.54903 1.26709C4.8847 1.26709 3.6342 1.31423 2.71977 1.65209C0.976888 2.31209 0.164062 3.85209 0.164062 6.49209C0.164062 9.13209 0.953441 10.7271 2.64943 11.3714C3.39192 11.6542 4.3845 11.7957 5.68971 11.7957C8.0344 11.7957 9.30054 11.3399 10.129 11.0414L10.254 10.9942L9.98831 10.1535L9.84763 10.2085C9.00354 10.5385 7.86246 10.8764 5.79132 10.8764C4.07188 10.8764 3.35284 10.6407 2.95424 10.4599C1.77408 9.95709 1.22699 8.84923 1.20354 6.86137H10.1993L10.254 6.65709C10.3713 6.20138 10.4963 5.72209 10.4963 4.92066C10.4963 3.24709 9.9336 2.33566 8.56587 1.7778ZM9.44122 6.04423H1.18009C1.21136 4.12709 1.84442 2.91709 3.05585 2.46923C3.66547 2.24923 4.52518 2.13138 5.61156 2.13138C6.69793 2.13138 7.45605 2.24923 8.14382 2.5478C9.01136 2.92495 9.55063 3.43566 9.55063 4.82638C9.55845 5.17995 9.51156 5.6278 9.44122 6.04423Z" fill="black"/>
<path d="M12.0508 2.18631H15.9508V11.8035H16.9746V2.18631H20.8746V1.2356H12.0508V2.18631Z" fill="black"/>
<path d="M30.9407 5.99709C30.6671 5.9028 29.6824 5.60423 27.4627 5.60423C26.1732 5.60423 24.571 5.7928 24.0864 5.8478V2.17852H31.5269V1.26709H23.1407V6.85352L23.2814 6.82995C23.3048 6.82209 25.5401 6.46066 27.3377 6.46066C28.9946 6.46066 29.9637 6.57852 30.6593 6.85352C31.2377 7.08923 31.5503 7.6078 31.5503 8.57423C31.5503 9.79995 31.1126 10.3499 30.1669 10.5857H30.1591C29.5026 10.7742 28.6507 10.8685 27.3924 10.8685C26.0325 10.8685 24.7507 10.6957 23.3283 10.3421L23.211 10.3107L22.9766 11.1828L23.0938 11.2142C24.0239 11.4735 25.6651 11.7721 27.4549 11.7721C29.2447 11.7721 29.7371 11.6385 30.4249 11.4814C32.1052 11.0964 32.4647 9.7528 32.4647 8.58995C32.4647 7.12066 31.9489 6.32709 30.9407 5.99709Z" fill="black"/>
<path d="M33.793 2.1078H35.8328V6.71209H36.7395V2.1078H38.7715V1.26709H33.793V2.1078Z" fill="black"/>
</g>
<defs>
<clipPath id="clip0_2001_3606">
<rect width="39" height="11" fill="black" transform="translate(0 1)"/>
</clipPath>
</defs>
</svg>
