<svg width="39" height="12" viewBox="0 0 39 12" fill="none" xmlns="http://www.w3.org/2000/svg">
<path fill-rule="evenodd" clip-rule="evenodd" d="M0.929844 5.77449C0.998562 3.72469 1.6757 2.48837 2.99446 1.99975C3.64845 1.75966 4.5827 1.6379 5.77113 1.6379C6.9462 1.6379 7.85241 1.78612 8.54621 2.09296C9.69164 2.58012 10.0783 3.21132 10.0783 4.59464C10.0783 5.00756 10.0501 5.39623 9.99248 5.77449H0.929844ZM8.90646 1.267C8.05636 0.909561 6.98712 0.728271 5.72863 0.728271C4.44355 0.728271 3.44965 0.865709 2.68994 1.14879C0.9051 1.81625 0 3.56398 0 6.3431C0 9.20662 0.81078 10.7993 2.62796 11.5069C3.39109 11.8062 4.47258 11.9578 5.8423 11.9578C6.63752 11.9578 7.32532 11.9099 7.94391 11.8114C8.6665 11.6991 9.0902 11.6147 9.35576 11.5307C9.73365 11.4174 10.0855 11.2984 10.4317 11.1671L10.7658 11.0405L10.4375 10.1885L10.1044 10.3195C8.87473 10.8029 7.45039 11.0482 5.87072 11.0482C4.58858 11.0482 3.58782 10.8998 2.89242 10.6056C1.59988 10.0756 0.98717 8.85984 0.928619 6.68424H10.748L10.7982 6.3883C10.9242 5.64636 10.988 5.03806 10.988 4.58043C10.988 2.82902 10.3848 1.8688 8.90646 1.267Z" fill="black"/>
<path fill-rule="evenodd" clip-rule="evenodd" d="M12.0273 1.92245H16.8603V11.6737H17.7701V1.92245H22.6172V1.0127H12.0273V1.92245Z" fill="black"/>
<path fill-rule="evenodd" clip-rule="evenodd" d="M32.9756 1.21175V1.0127H23.793V1.92245H31.7562L25.9993 11.6737H27.0661L32.9263 1.74765L32.9756 1.66411V1.25486L33.0011 1.21175H32.9756Z" fill="black"/>
</svg>
