<svg width="118" height="18" viewBox="0 0 118 18" fill="none" xmlns="http://www.w3.org/2000/svg">
<path d="M0 0.441011V17.503H2.83797C3.08817 17.503 3.26484 17.4999 3.45683 17.4419C3.63861 17.3869 3.80098 17.2891 3.93578 17.1546C4.07059 17.0202 4.16862 16.8583 4.22377 16.677C4.28198 16.4855 4.28606 16.3093 4.28606 16.0597V7.02054C7.10769 10.2298 9.93035 13.4391 12.752 16.6484C13.0165 16.9489 13.236 17.1811 13.5792 17.337C13.9223 17.4918 14.243 17.504 14.6433 17.504H17.7611V0.441011H14.9231C14.6729 0.441011 14.4962 0.444067 14.3042 0.502122C14.1225 0.557121 13.9601 0.654897 13.8253 0.78934C13.6905 0.923782 13.5924 1.08572 13.5373 1.26702C13.4791 1.4585 13.476 1.6347 13.476 1.88423V10.9234C10.6544 7.71414 7.83174 4.50484 5.01011 1.29553C4.74561 0.995076 4.52605 0.76184 4.18292 0.607028C3.83979 0.452215 3.52015 0.439993 3.11881 0.439993H0.00102066L0 0.441011ZM20.884 1.88525V17.503H25.1588V0.441011H22.3321C22.0819 0.441011 21.9052 0.444067 21.7132 0.502122C21.5314 0.557121 21.369 0.654897 21.2342 0.78934C21.0994 0.923782 21.0014 1.08572 20.9463 1.26702C20.888 1.4585 20.884 1.6347 20.884 1.88423M36.9141 13.7141C34.3079 13.7141 32.1868 11.5997 32.1868 8.99949C32.1868 6.39925 34.3069 4.28484 36.9141 4.28484C39.5212 4.28484 41.6403 6.39925 41.6403 8.99949C41.6403 11.5997 39.5202 13.7141 36.9141 13.7141ZM36.8936 0C31.857 0 27.7598 4.03734 27.7598 8.99949C27.7598 13.9616 31.858 18 36.8936 18C41.9293 18 46.0285 13.9627 46.0285 8.99949C46.0285 4.03633 41.9303 0 36.8936 0ZM118 5.92463C115.454 5.65574 113.912 7.5359 113.104 9.53828V17.5468H111.88V4.92344H113.054V7.68257C113.985 5.75352 115.649 4.70345 117.339 4.70345C117.535 4.70345 117.779 4.70345 118 4.72789V5.92463ZM98.463 10.2217H107.595C107.521 7.80479 105.93 5.72908 103.188 5.72908C100.788 5.72908 98.9042 7.51146 98.463 10.2217ZM98.3895 11.4184C98.5366 14.5921 100.911 16.6189 103.506 16.6189C105.391 16.6189 106.689 15.8622 107.619 14.9099L108.452 15.6911C107.521 16.79 105.832 17.8391 103.458 17.8391C99.5649 17.8391 97.1171 14.8365 97.1171 11.2219C97.1171 7.6072 99.4434 4.55678 103.188 4.55678C106.933 4.55678 109.04 7.29146 108.916 11.4174H98.3895V11.4184ZM82.964 17.5468H81.3484L76.8928 4.92344H78.2388L82.1797 16.2767L85.852 4.92344H86.8803L90.5281 16.2767L94.421 4.92344H95.767L91.3114 17.5468H89.6958L86.3422 7.1947L82.964 17.5468ZM69.057 16.6434C71.6274 16.6434 74.2468 14.5188 74.2468 11.1984C74.2468 7.87812 71.6274 5.75352 69.057 5.75352C66.4866 5.75352 63.8426 7.87812 63.8426 11.1984C63.8426 14.5188 66.4866 16.6434 69.057 16.6434ZM69.057 4.55678C72.3137 4.55678 75.5448 6.99813 75.5448 11.1974C75.5448 15.3967 72.3137 17.8381 69.057 17.8381C65.8003 17.8381 62.5692 15.3967 62.5692 11.1974C62.5692 6.99813 65.7768 4.55678 69.057 4.55678ZM51.6247 9.70837H55.1255C58.7978 9.70837 59.9722 7.63368 59.9722 5.70463C59.9722 3.33662 58.6017 1.65099 55.052 1.65099H51.6247V9.70837ZM51.6247 10.9296V17.5457H50.3523V0.45527H55.6402C59.1164 0.45527 61.3447 2.72653 61.3447 5.65574C61.3447 8.87829 58.7008 10.9296 55.7627 10.9296H51.6247Z" fill="black"/>
</svg>
